<svg width="428" height="417" viewBox="0 0 428 417" fill="none" xmlns="http://www.w3.org/2000/svg">
<path d="M265.318 209.026C228.809 208.692 195.769 208.389 171.821 208.17C159.874 208.115 150.203 208.07 143.486 208.039C140.159 208.046 137.57 208.052 135.782 208.056C134.92 208.067 134.255 208.076 133.779 208.082C133.327 208.092 133.096 208.104 133.096 208.118C133.096 208.131 133.327 208.145 133.779 208.159C134.255 208.17 134.92 208.185 135.782 208.205C137.57 208.226 140.159 208.258 143.486 208.297C150.201 208.332 159.873 208.382 171.82 208.444C195.77 208.458 228.81 208.478 265.321 208.5C301.814 208.496 334.86 208.543 358.784 208.711C370.745 208.793 380.426 208.901 387.116 209.024C390.461 209.086 393.058 209.15 394.819 209.215C396.58 209.28 397.505 209.346 397.505 209.409C397.504 209.471 396.579 209.528 394.818 209.576C393.056 209.624 390.458 209.663 387.113 209.692C380.421 209.749 370.74 209.763 358.778 209.729C334.854 209.663 301.81 209.386 265.318 209.026Z" fill="#EBEBEB"/>
<path d="M264.591 216.873C228.58 211.136 195.992 205.944 172.371 202.181C160.578 200.359 151.031 198.885 144.402 197.861C141.114 197.376 138.555 197 136.788 196.74C135.934 196.624 135.275 196.535 134.804 196.471C134.357 196.415 134.126 196.393 134.123 196.406C134.121 196.419 134.347 196.468 134.791 196.55C135.26 196.631 135.913 196.745 136.761 196.893C138.524 197.179 141.076 197.594 144.356 198.127C150.985 199.156 160.53 200.637 172.322 202.467C195.978 206.024 228.615 210.931 264.68 216.354C300.73 221.747 333.369 226.681 356.974 230.387C368.777 232.238 378.323 233.779 384.911 234.892C388.206 235.448 390.761 235.897 392.489 236.223C394.218 236.549 395.12 236.752 395.11 236.815C395.099 236.878 394.176 236.798 392.428 236.585C390.68 236.373 388.106 236.028 384.796 235.561C378.177 234.629 368.611 233.21 356.8 231.406C333.177 227.801 300.579 222.633 264.591 216.873Z" fill="#EBEBEB"/>
<path d="M262.582 224.514C227.969 213.446 196.647 203.43 173.943 196.17C162.598 192.603 153.414 189.714 147.036 187.708C143.87 186.737 141.405 185.982 139.702 185.46C138.878 185.218 138.243 185.031 137.788 184.897C137.355 184.774 137.131 184.719 137.127 184.732C137.122 184.745 137.337 184.827 137.761 184.975C138.211 185.126 138.838 185.336 139.652 185.61C141.345 186.157 143.796 186.949 146.947 187.968C153.323 189.979 162.504 192.873 173.846 196.449C196.62 203.509 228.038 213.249 262.756 224.012C297.466 234.743 328.882 244.509 351.579 251.71C362.929 255.309 372.1 258.263 378.422 260.351C381.583 261.395 384.032 262.222 385.686 262.804C387.339 263.386 388.197 263.722 388.175 263.783C388.154 263.844 387.255 263.627 385.563 263.155C383.872 262.684 381.388 261.957 378.197 261.001C371.813 259.088 362.601 256.254 351.236 252.7C328.504 245.597 297.167 235.603 262.582 224.514Z" fill="#EBEBEB"/>
<path d="M259.336 231.75C226.982 215.635 197.703 201.051 176.481 190.481C165.867 185.257 157.274 181.029 151.308 178.093C148.341 176.658 146.032 175.543 144.439 174.773C143.664 174.409 143.068 174.129 142.641 173.929C142.234 173.743 142.023 173.653 142.016 173.665C142.009 173.678 142.208 173.791 142.603 174C143.021 174.216 143.606 174.517 144.364 174.909C145.945 175.703 148.236 176.853 151.179 178.33C157.143 181.271 165.732 185.505 176.343 190.736C197.665 201.123 227.082 215.452 259.588 231.287C292.091 247.089 321.501 261.443 342.726 271.956C353.34 277.211 361.91 281.501 367.809 284.509C370.758 286.013 373.041 287.197 374.577 288.018C376.114 288.839 376.906 289.299 376.876 289.355C376.845 289.412 375.994 289.062 374.402 288.342C372.81 287.622 370.477 286.532 367.483 285.108C361.497 282.261 352.868 278.08 342.232 272.867C320.957 262.445 291.661 247.881 259.336 231.75Z" fill="#EBEBEB"/>
<path d="M254.938 238.416C225.626 217.682 199.102 198.919 179.874 185.318C170.248 178.579 162.456 173.123 157.045 169.334C154.35 167.476 152.252 166.03 150.804 165.031C150.099 164.557 149.556 164.192 149.167 163.93C148.796 163.686 148.601 163.566 148.593 163.577C148.584 163.588 148.762 163.729 149.118 163.995C149.496 164.271 150.024 164.656 150.709 165.155C152.14 166.175 154.214 167.652 156.879 169.549C162.288 173.342 170.076 178.803 179.697 185.549C199.054 198.982 225.757 217.515 255.265 237.993C284.775 258.44 311.468 276.996 330.706 290.54C340.327 297.311 348.087 302.824 353.42 306.674C356.087 308.598 358.146 310.107 359.529 311.147C360.913 312.187 361.619 312.759 361.58 312.811C361.54 312.862 360.757 312.389 359.302 311.442C357.848 310.493 355.722 309.07 352.999 307.218C347.553 303.515 339.717 298.101 330.067 291.369C310.764 277.907 284.219 259.161 254.938 238.416Z" fill="#EBEBEB"/>
<path d="M249.505 244.344C223.935 219.521 200.797 197.057 184.025 180.774C175.617 172.691 168.81 166.146 164.083 161.602C161.724 159.367 159.889 157.628 158.621 156.427C158.002 155.854 157.526 155.413 157.184 155.097C156.857 154.801 156.684 154.654 156.674 154.664C156.663 154.673 156.817 154.839 157.125 155.154C157.453 155.483 157.912 155.941 158.507 156.535C159.755 157.754 161.562 159.52 163.885 161.789C168.608 166.336 175.41 172.885 183.813 180.974C200.739 197.111 224.091 219.374 249.896 243.975C275.708 268.545 299.045 290.83 315.838 307.059C324.236 315.172 331.001 321.767 335.64 326.36C337.96 328.656 339.749 330.451 340.945 331.684C342.142 332.916 342.746 333.586 342.699 333.63C342.652 333.675 341.955 333.092 340.673 331.94C339.392 330.788 337.524 329.066 335.137 326.834C330.362 322.369 323.505 315.86 315.072 307.78C298.203 291.624 275.041 269.174 249.505 244.344Z" fill="#EBEBEB"/>
<path d="M243.171 249.396C221.967 221.087 202.779 195.469 188.871 176.899C181.885 167.668 176.23 160.196 172.303 155.007C170.337 152.45 168.808 150.46 167.752 149.086C167.234 148.429 166.835 147.922 166.549 147.56C166.275 147.218 166.128 147.047 166.116 147.055C166.105 147.064 166.228 147.25 166.481 147.607C166.752 147.98 167.129 148.5 167.62 149.177C168.654 150.566 170.151 152.578 172.075 155.163C175.998 160.355 181.648 167.831 188.627 177.067C202.712 195.515 222.144 220.966 243.617 249.09C265.102 277.185 284.517 302.655 298.455 321.174C305.426 330.432 311.032 337.951 314.864 343.174C316.781 345.787 318.255 347.824 319.235 349.22C320.215 350.614 320.703 351.365 320.649 351.403C320.595 351.44 320.003 350.761 318.924 349.433C317.846 348.105 316.283 346.129 314.289 343.569C310.301 338.452 304.59 331.006 297.579 321.775C283.554 303.315 264.341 277.707 243.171 249.396Z" fill="#EBEBEB"/>
<path d="M236.087 253.445C219.792 222.326 205.046 194.165 194.358 173.753C188.973 163.595 184.614 155.373 181.587 149.662C180.065 146.844 178.881 144.651 178.063 143.137C177.66 142.41 177.349 141.851 177.126 141.45C176.91 141.072 176.793 140.882 176.781 140.888C176.768 140.894 176.859 141.097 177.05 141.487C177.256 141.896 177.544 142.466 177.917 143.207C178.71 144.733 179.859 146.943 181.334 149.784C184.356 155.496 188.709 163.722 194.086 173.883C204.97 194.202 219.986 222.233 236.579 253.209C253.189 284.157 268.184 312.205 278.911 332.572C284.276 342.755 288.579 351.014 291.506 356.745C292.97 359.611 294.091 361.843 294.831 363.367C295.57 364.891 295.929 365.705 295.869 365.734C295.809 365.763 295.334 365.004 294.487 363.532C293.64 362.06 292.421 359.875 290.871 357.051C287.772 351.403 283.354 343.198 277.944 333.037C267.12 312.716 252.348 284.561 236.087 253.445Z" fill="#EBEBEB"/>
<path d="M228.423 256.386C217.472 223.212 207.563 193.192 200.38 171.432C196.74 160.595 193.793 151.82 191.747 145.728C190.71 142.717 189.903 140.374 189.345 138.757C189.066 137.979 188.852 137.38 188.697 136.95C188.547 136.545 188.463 136.339 188.449 136.343C188.435 136.348 188.491 136.561 188.616 136.975C188.752 137.41 188.942 138.017 189.188 138.804C189.719 140.43 190.487 142.785 191.474 145.811C193.516 151.905 196.455 160.681 200.086 171.521C207.478 193.217 217.678 223.15 228.948 256.226C240.24 289.277 250.415 319.222 257.644 340.944C261.261 351.803 264.144 360.605 266.088 366.703C267.06 369.752 267.798 372.125 268.276 373.741C268.755 375.356 268.974 376.215 268.909 376.234C268.845 376.253 268.502 375.434 267.908 373.853C267.314 372.273 266.47 369.932 265.406 366.911C263.278 360.869 260.271 352.104 256.607 341.259C249.278 319.57 239.341 289.551 228.423 256.386Z" fill="#EBEBEB"/>
<path d="M220.366 258.142C215.032 223.74 210.204 192.609 206.705 170.043C204.9 158.795 203.44 149.689 202.427 143.366C201.9 140.237 201.489 137.802 201.207 136.121C201.06 135.311 200.948 134.688 200.866 134.241C200.785 133.818 200.736 133.602 200.722 133.605C200.708 133.607 200.729 133.826 200.783 134.253C200.846 134.703 200.933 135.33 201.046 136.145C201.302 137.83 201.672 140.271 202.148 143.407C203.157 149.731 204.61 158.838 206.405 170.087C210.121 192.621 215.248 223.71 220.912 258.062C226.602 292.394 231.703 323.492 235.253 346.025C237.031 357.291 238.425 366.416 239.337 372.729C239.794 375.886 240.13 378.34 240.336 380.007C240.542 381.674 240.617 382.555 240.55 382.564C240.484 382.574 240.281 381.712 239.955 380.063C239.63 378.413 239.185 375.975 238.634 372.832C237.531 366.546 236.009 357.44 234.182 346.18C230.525 323.663 225.67 292.529 220.366 258.142Z" fill="#EBEBEB"/>
<path d="M212.119 258.675C212.447 223.902 212.745 192.434 212.961 169.625C213.011 158.246 213.052 149.035 213.08 142.638C213.071 139.47 213.063 137.004 213.058 135.301C213.045 134.479 213.036 133.847 213.029 133.393C213.017 132.963 213.005 132.743 212.991 132.743C212.978 132.743 212.963 132.963 212.947 133.392C212.936 133.846 212.921 134.479 212.901 135.3C212.88 137.002 212.849 139.468 212.809 142.637C212.777 149.034 212.73 158.245 212.673 169.623C212.672 192.434 212.672 223.903 212.671 258.677C212.697 293.434 212.669 324.908 212.507 347.693C212.428 359.086 212.321 368.306 212.196 374.678C212.133 377.864 212.067 380.338 212 382.015C211.932 383.692 211.864 384.573 211.798 384.573C211.732 384.573 211.672 383.691 211.621 382.014C211.57 380.336 211.527 377.861 211.495 374.675C211.43 368.302 211.41 359.081 211.44 347.689C211.494 324.905 211.763 293.431 212.119 258.675Z" fill="#EBEBEB"/>
<path d="M203.881 257.987C209.882 223.686 215.312 192.645 219.248 170.144C221.153 158.911 222.695 149.817 223.766 143.503C224.272 140.371 224.666 137.933 224.938 136.251C225.06 135.437 225.152 134.811 225.22 134.362C225.278 133.935 225.301 133.716 225.288 133.713C225.273 133.711 225.222 133.926 225.136 134.348C225.051 134.795 224.932 135.417 224.778 136.226C224.478 137.905 224.044 140.336 223.487 143.459C222.412 149.773 220.862 158.866 218.948 170.098C215.227 192.631 210.096 223.718 204.425 258.071C198.785 292.41 193.626 323.499 189.748 345.983C187.812 357.226 186.201 366.318 185.036 372.594C184.454 375.732 183.985 378.166 183.643 379.813C183.302 381.46 183.09 382.319 183.024 382.309C182.958 382.299 183.041 381.419 183.263 379.754C183.485 378.088 183.846 375.638 184.333 372.485C185.309 366.18 186.791 357.068 188.679 345.818C192.449 323.318 197.855 292.267 203.881 257.987Z" fill="#EBEBEB"/>
<path d="M195.856 256.078C207.455 223.105 217.952 193.267 225.56 171.638C229.298 160.831 232.324 152.082 234.427 146.006C235.444 142.99 236.235 140.642 236.782 139.02C237.036 138.235 237.232 137.63 237.372 137.196C237.5 136.784 237.559 136.571 237.545 136.566C237.531 136.562 237.445 136.767 237.29 137.171C237.132 137.599 236.911 138.197 236.625 138.972C236.051 140.585 235.221 142.92 234.154 145.921C232.047 151.995 229.013 160.742 225.266 171.546C217.868 193.241 207.662 223.17 196.383 256.244C185.138 289.31 174.904 319.238 167.357 340.86C163.586 351.672 160.491 360.409 158.302 366.431C157.208 369.443 156.341 371.775 155.732 373.35C155.122 374.926 154.769 375.743 154.705 375.722C154.641 375.702 154.868 374.846 155.362 373.235C155.856 371.623 156.616 369.257 157.619 366.217C159.623 360.136 162.594 351.361 166.318 340.534C173.763 318.877 184.235 289.026 195.856 256.078Z" fill="#EBEBEB"/>
<path d="M188.256 252.992C205.155 222.167 220.449 194.271 231.534 174.052C237.012 163.94 241.447 155.753 244.525 150.068C246.03 147.241 247.199 145.041 248.007 143.523C248.389 142.786 248.682 142.218 248.892 141.811C249.087 141.423 249.18 141.222 249.168 141.215C249.155 141.209 249.036 141.398 248.817 141.774C248.591 142.173 248.275 142.73 247.863 143.453C247.031 144.959 245.825 147.141 244.275 149.946C241.192 155.628 236.751 163.811 231.265 173.92C220.373 194.234 205.347 222.261 188.741 253.231C172.17 284.197 157.118 312.217 146.093 332.44C140.583 342.552 136.084 350.716 132.929 356.336C131.352 359.147 130.111 361.321 129.25 362.785C128.389 364.25 127.907 365.004 127.848 364.975C127.789 364.946 128.156 364.134 128.91 362.618C129.666 361.102 130.809 358.879 132.302 356.027C135.287 350.324 139.671 342.103 145.138 331.97C156.067 311.701 171.34 283.789 188.256 252.992Z" fill="#EBEBEB"/>
<path d="M181.255 248.808C203.007 220.878 222.691 195.602 236.958 177.282C244.028 168.11 249.752 160.684 253.727 155.529C255.676 152.961 257.193 150.963 258.24 149.583C258.737 148.911 259.12 148.394 259.396 148.023C259.652 147.669 259.777 147.483 259.766 147.475C259.754 147.467 259.606 147.637 259.328 147.975C259.038 148.336 258.635 148.838 258.111 149.491C257.041 150.855 255.493 152.831 253.502 155.37C249.523 160.524 243.794 167.945 236.717 177.113C222.625 195.556 203.184 221.001 181.7 249.119C160.25 277.238 140.784 302.672 126.576 321.005C119.473 330.172 113.689 337.566 109.65 342.647C107.631 345.188 106.049 347.151 104.957 348.469C103.866 349.787 103.266 350.46 103.212 350.423C103.159 350.385 103.654 349.639 104.649 348.252C105.643 346.866 107.137 344.841 109.079 342.247C112.963 337.058 118.644 329.591 125.705 320.396C139.827 302.003 159.493 276.708 181.255 248.808Z" fill="#EBEBEB"/>
<path d="M175.027 243.637C201.075 219.269 224.646 197.216 241.732 181.232C250.214 173.219 257.081 166.732 261.849 162.227C264.194 159.979 266.019 158.23 267.279 157.022C267.88 156.432 268.343 155.978 268.674 155.653C268.985 155.341 269.14 155.176 269.13 155.167C269.12 155.157 268.946 155.303 268.615 155.596C268.27 155.91 267.79 156.346 267.165 156.914C265.886 158.103 264.033 159.826 261.652 162.039C256.881 166.541 250.01 173.024 241.521 181.031C224.588 197.162 201.228 219.418 175.414 244.01C149.633 268.609 126.25 290.849 109.22 306.853C100.708 314.857 93.7863 321.304 88.9671 325.726C86.5579 327.937 84.6739 329.641 83.3811 330.782C82.0883 331.922 81.3853 332.498 81.3382 332.454C81.2911 332.409 81.9029 331.745 83.1113 330.523C84.3197 329.302 86.1262 327.523 88.4685 325.247C93.1532 320.696 99.9833 314.162 108.461 306.125C125.417 290.048 148.973 267.973 175.027 243.637Z" fill="#EBEBEB"/>
<path d="M169.719 237.607C199.429 217.394 226.315 199.103 245.803 185.845C255.491 179.186 263.333 173.795 268.779 170.051C271.462 168.178 273.55 166.72 274.992 165.713C275.682 165.22 276.214 164.84 276.594 164.568C276.952 164.305 277.132 164.166 277.123 164.155C277.115 164.144 276.92 164.262 276.546 164.503C276.154 164.761 275.608 165.122 274.898 165.589C273.44 166.574 271.328 168.001 268.615 169.835C263.167 173.575 255.32 178.961 245.628 185.613C226.267 199.041 199.557 217.565 170.042 238.034C140.557 258.514 113.827 277.021 94.3912 290.308C84.6746 296.952 76.7851 302.297 71.3024 305.95C68.5611 307.777 66.4217 309.182 64.9579 310.116C63.4942 311.051 62.7061 311.517 62.6665 311.464C62.6278 311.413 63.3399 310.848 64.7337 309.82C66.1268 308.792 68.2016 307.302 70.8875 305.402C76.2584 301.6 84.0719 296.157 93.7597 289.473C113.132 276.103 140.007 257.788 169.719 237.607Z" fill="#EBEBEB"/>
<path d="M165.463 230.863C198.126 215.323 227.684 201.262 249.11 191.068C259.771 185.933 268.402 181.777 274.396 178.89C277.354 177.439 279.656 176.31 281.244 175.53C282.007 175.145 282.594 174.849 283.015 174.636C283.412 174.431 283.611 174.319 283.605 174.307C283.598 174.294 283.385 174.382 282.976 174.564C282.547 174.76 281.948 175.035 281.17 175.391C279.569 176.147 277.249 177.241 274.267 178.648C268.272 181.531 259.638 185.682 248.973 190.809C227.647 201.188 198.224 215.508 165.711 231.331C133.228 247.171 103.789 261.47 82.4114 271.699C71.7235 276.816 63.0534 280.918 57.038 283.71C54.0307 285.106 51.6869 286.175 50.0878 286.88C48.4888 287.586 47.6338 287.927 47.6034 287.871C47.573 287.813 48.3695 287.361 49.9145 286.553C51.4596 285.745 53.7533 284.582 56.7173 283.105C62.6453 280.15 71.2569 275.936 81.9227 270.778C103.251 260.457 132.803 246.369 165.463 230.863Z" fill="#EBEBEB"/>
<path d="M162.371 223.565C197.194 213.114 228.707 203.656 251.55 196.802C262.926 193.328 272.137 190.516 278.532 188.563C281.693 187.573 284.152 186.803 285.85 186.271C286.666 186.005 287.296 185.8 287.746 185.654C288.172 185.51 288.388 185.43 288.383 185.416C288.379 185.403 288.155 185.458 287.72 185.576C287.264 185.706 286.627 185.887 285.8 186.122C284.093 186.628 281.622 187.362 278.445 188.304C272.048 190.252 262.835 193.057 251.456 196.523C228.68 203.577 197.259 213.31 162.538 224.065C127.843 234.84 96.4088 244.55 73.6081 251.449C62.2081 254.901 52.9688 257.653 46.5665 259.509C43.3654 260.436 40.8749 261.14 39.1793 261.597C37.483 262.053 36.5824 262.263 36.5619 262.202C36.5414 262.141 37.4024 261.813 39.0615 261.246C40.7206 260.679 43.1777 259.875 46.3492 258.86C52.6921 256.83 61.8919 253.959 73.2767 250.463C96.0448 243.467 127.556 233.985 162.371 223.565Z" fill="#EBEBEB"/>
<path d="M160.523 215.893C196.638 210.79 229.322 206.173 253.012 202.826C264.821 201.101 274.381 199.705 281.019 198.735C284.304 198.231 286.86 197.84 288.625 197.569C289.476 197.428 290.13 197.321 290.6 197.244C291.043 197.166 291.27 197.119 291.268 197.106C291.265 197.092 291.035 197.112 290.587 197.164C290.115 197.224 289.456 197.307 288.6 197.416C286.831 197.66 284.269 198.014 280.976 198.469C274.337 199.435 264.776 200.825 252.966 202.542C229.309 206.095 196.671 210.996 160.606 216.413C124.563 221.855 91.9158 226.732 68.2593 230.127C56.4314 231.827 46.8516 233.161 40.2236 234.035C36.9093 234.471 34.3336 234.793 32.5834 234.99C30.8331 235.187 29.9089 235.259 29.8983 235.196C29.8884 235.133 30.7928 234.938 32.5248 234.628C34.2569 234.317 36.8158 233.891 40.1157 233.364C46.7148 232.31 56.2748 230.853 68.0951 229.107C91.7349 225.609 124.42 220.966 160.523 215.893Z" fill="#EBEBEB"/>
<path d="M159.957 208.039C196.468 208.331 229.507 208.594 253.455 208.786C265.403 208.827 275.074 208.86 281.79 208.883C285.118 208.872 287.706 208.862 289.494 208.856C290.356 208.844 291.021 208.834 291.497 208.828C291.949 208.817 292.18 208.805 292.18 208.792C292.18 208.778 291.949 208.764 291.497 208.751C291.021 208.74 290.356 208.726 289.494 208.707C287.706 208.688 285.117 208.66 281.79 208.624C275.074 208.597 265.403 208.558 253.455 208.511C229.506 208.524 196.465 208.543 159.954 208.564C123.461 208.611 90.4141 208.604 66.4908 208.464C54.5292 208.396 44.8483 208.299 38.158 208.184C34.8125 208.127 32.2156 208.065 30.4546 208.002C28.6937 207.939 27.7688 207.874 27.7688 207.812C27.7688 207.749 28.6945 207.691 30.4554 207.641C32.2171 207.592 34.8148 207.549 38.1603 207.517C44.8513 207.451 54.533 207.426 66.4946 207.447C90.4202 207.484 123.466 207.722 159.957 208.039Z" fill="#EBEBEB"/>
<path d="M160.674 200.191C196.692 205.885 229.287 211.037 252.913 214.772C264.709 216.579 274.257 218.042 280.888 219.058C284.178 219.538 286.736 219.912 288.503 220.17C289.358 220.285 290.016 220.373 290.488 220.437C290.935 220.493 291.167 220.514 291.168 220.501C291.17 220.488 290.945 220.439 290.501 220.358C290.033 220.277 289.379 220.164 288.529 220.017C286.767 219.733 284.214 219.322 280.934 218.793C274.304 217.772 264.757 216.303 252.962 214.487C229.301 210.958 196.657 206.09 160.586 200.711C124.527 195.362 91.8823 190.467 68.2729 186.789C56.4671 184.952 46.92 183.423 40.33 182.318C37.0346 181.766 34.4795 181.32 32.7498 180.997C31.02 180.673 30.1179 180.471 30.1278 180.408C30.1384 180.345 31.0626 180.424 32.8106 180.634C34.5593 180.844 37.1327 181.186 40.4425 181.648C47.0628 182.572 56.6312 183.979 68.4447 185.77C92.0731 189.346 124.678 194.474 160.674 200.191Z" fill="#EBEBEB"/>
<path d="M162.673 192.548C197.301 203.574 228.636 213.552 251.35 220.785C262.699 224.339 271.887 227.215 278.268 229.213C281.436 230.18 283.902 230.932 285.604 231.452C286.429 231.693 287.064 231.879 287.519 232.013C287.953 232.134 288.177 232.19 288.181 232.177C288.186 232.164 287.971 232.082 287.547 231.935C287.097 231.784 286.47 231.574 285.656 231.302C283.962 230.757 281.509 229.967 278.358 228.952C271.979 226.95 262.794 224.066 251.448 220.504C228.664 213.472 197.233 203.77 162.5 193.05C127.776 182.36 96.3467 172.633 73.6402 165.459C62.2858 161.874 53.1111 158.931 46.7863 156.851C43.624 155.811 41.1737 154.987 39.52 154.407C37.8662 153.827 37.0074 153.492 37.0287 153.431C37.05 153.37 37.9491 153.585 39.6416 154.054C41.3333 154.523 43.8185 155.247 47.0113 156.199C53.3968 158.104 62.6126 160.928 73.9829 164.468C96.7229 171.545 128.073 181.501 162.673 192.548Z" fill="#EBEBEB"/>
<path d="M165.909 185.307C198.285 201.383 227.583 215.931 248.819 226.477C259.44 231.687 268.037 235.906 274.008 238.835C276.977 240.266 279.288 241.378 280.882 242.147C281.657 242.51 282.253 242.788 282.68 242.989C283.088 243.175 283.3 243.263 283.307 243.251C283.313 243.239 283.114 243.126 282.719 242.917C282.3 242.702 281.716 242.4 280.957 242.01C279.374 241.218 277.082 240.071 274.137 238.597C268.169 235.664 259.574 231.439 248.958 226.221C227.621 215.859 198.186 201.566 165.658 185.771C133.134 170.007 103.705 155.688 82.466 145.201C71.8457 139.959 63.2699 135.679 57.367 132.678C54.4159 131.178 52.1321 129.998 50.5938 129.178C49.0556 128.358 48.2629 127.9 48.2933 127.843C48.3237 127.787 49.1757 128.136 50.7686 128.854C52.3616 129.572 54.6956 130.659 57.6907 132.079C63.681 134.918 72.3154 139.09 82.9584 144.29C104.247 154.686 133.562 169.215 165.909 185.307Z" fill="#EBEBEB"/>
<path d="M170.298 178.637C199.637 199.336 226.187 218.067 245.431 231.644C255.067 238.372 262.866 243.819 268.282 247.601C270.98 249.456 273.079 250.899 274.528 251.896C275.234 252.369 275.777 252.734 276.166 252.995C276.538 253.239 276.733 253.358 276.742 253.347C276.75 253.336 276.572 253.195 276.217 252.93C275.838 252.655 275.31 252.27 274.624 251.772C273.19 250.754 271.115 249.28 268.448 247.385C263.034 243.6 255.238 238.148 245.608 231.414C226.234 218.003 199.507 199.503 169.972 179.06C140.434 158.648 113.717 140.124 94.4611 126.603C84.8311 119.844 77.0639 114.34 71.7264 110.497C69.0573 108.575 66.9954 107.069 65.6107 106.031C64.226 104.992 63.5184 104.421 63.558 104.37C63.5975 104.319 64.3818 104.79 65.8372 105.736C67.2926 106.682 69.4198 108.104 72.1452 109.952C77.5959 113.648 85.4399 119.054 95.0987 125.774C114.42 139.213 140.991 157.927 170.298 178.637Z" fill="#EBEBEB"/>
<path d="M175.723 172.702C201.325 197.495 224.493 219.931 241.286 236.193C249.705 244.267 256.52 250.803 261.253 255.341C263.615 257.573 265.453 259.31 266.722 260.509C267.341 261.082 267.819 261.522 268.161 261.838C268.488 262.134 268.661 262.281 268.671 262.271C268.681 262.261 268.528 262.096 268.22 261.781C267.891 261.453 267.432 260.995 266.836 260.401C265.586 259.184 263.777 257.42 261.451 255.154C256.722 250.613 249.911 244.072 241.498 235.993C224.55 219.876 201.169 197.641 175.333 173.071C149.489 148.532 126.122 126.275 109.308 110.066C100.898 101.963 94.1251 95.3755 89.4792 90.7888C87.1567 88.495 85.3654 86.7026 84.1676 85.4717C82.9698 84.2408 82.3641 83.5721 82.4112 83.5273C82.4584 83.4825 83.156 84.0646 84.4389 85.2148C85.7218 86.365 87.5914 88.0847 89.9816 90.3139C94.7628 94.7729 101.628 101.274 110.072 109.344C126.963 125.48 150.155 147.902 175.723 172.702Z" fill="#EBEBEB"/>
<path d="M182.051 167.642C203.292 195.926 222.514 221.521 236.447 240.075C243.445 249.297 249.11 256.763 253.044 261.947C255.013 264.501 256.545 266.49 257.603 267.862C258.122 268.519 258.521 269.025 258.807 269.388C259.082 269.728 259.229 269.899 259.241 269.891C259.252 269.883 259.128 269.697 258.875 269.341C258.604 268.968 258.225 268.447 257.733 267.772C256.698 266.384 255.199 264.374 253.271 261.791C249.342 256.603 243.682 249.134 236.691 239.907C222.581 221.476 203.115 196.048 181.604 167.95C160.082 139.881 140.634 114.434 126.671 95.9309C119.688 86.681 114.073 79.17 110.233 73.9505C108.314 71.3412 106.838 69.3043 105.855 67.9112C104.872 66.5181 104.384 65.7672 104.438 65.7305C104.492 65.693 105.086 66.3713 106.166 67.6976C107.246 69.0239 108.811 70.9991 110.809 73.5556C114.803 78.668 120.524 86.107 127.547 95.3298C141.596 113.771 160.843 139.357 182.051 167.642Z" fill="#EBEBEB"/>
<path d="M189.129 163.584C205.465 194.683 220.249 222.826 230.964 243.226C236.362 253.378 240.732 261.595 243.767 267.301C245.292 270.118 246.479 272.31 247.299 273.822C247.704 274.548 248.015 275.108 248.238 275.508C248.454 275.886 248.571 276.076 248.584 276.07C248.597 276.064 248.505 275.861 248.313 275.472C248.106 275.063 247.818 274.492 247.444 273.753C246.649 272.227 245.498 270.019 244.019 267.18C240.989 261.472 236.625 253.251 231.234 243.096C220.323 222.791 205.27 194.778 188.636 163.822C171.985 132.894 156.952 104.864 146.198 84.5105C140.82 74.3343 136.506 66.079 133.571 60.3524C132.103 57.489 130.979 55.2577 130.238 53.7346C129.497 52.2116 129.137 51.3976 129.197 51.3689C129.256 51.3403 129.733 52.0978 130.582 53.5687C131.431 55.0397 132.653 57.2233 134.206 60.0456C137.313 65.69 141.741 73.8895 147.165 84.0437C158.017 104.351 172.827 132.488 189.129 163.584Z" fill="#EBEBEB"/>
<path d="M196.789 160.634C207.784 193.795 217.734 223.803 224.946 245.554C228.6 256.387 231.559 265.157 233.613 271.248C234.654 274.257 235.465 276.599 236.025 278.216C236.304 278.994 236.52 279.593 236.675 280.022C236.826 280.427 236.91 280.633 236.924 280.628C236.938 280.624 236.881 280.41 236.756 279.997C236.619 279.562 236.428 278.956 236.181 278.169C235.649 276.544 234.877 274.19 233.885 271.165C231.836 265.073 228.885 256.301 225.239 245.465C217.817 223.778 207.579 193.858 196.264 160.795C184.928 127.758 174.712 97.8248 167.455 76.1131C163.823 65.2579 160.928 56.4587 158.975 50.3636C157.999 47.316 157.258 44.9438 156.778 43.329C156.298 41.7142 156.077 40.8561 156.141 40.8363C156.205 40.8165 156.55 41.6363 157.146 43.2159C157.742 44.7955 158.588 47.1355 159.656 50.1552C161.792 56.1945 164.812 64.9555 168.49 75.7967C175.85 97.4761 185.828 127.482 196.789 160.634Z" fill="#EBEBEB"/>
<path d="M204.843 158.869C210.224 193.264 215.093 224.39 218.622 246.951C220.44 258.197 221.913 267.301 222.935 273.623C223.467 276.751 223.879 279.185 224.164 280.866C224.312 281.676 224.426 282.3 224.507 282.747C224.589 283.169 224.638 283.385 224.652 283.383C224.667 283.381 224.645 283.161 224.591 282.734C224.527 282.285 224.439 281.657 224.325 280.842C224.067 279.157 223.694 276.717 223.213 273.582C222.196 267.259 220.731 258.154 218.92 246.907C215.175 224.377 210.007 193.295 204.297 158.949C198.561 124.624 193.419 93.5323 189.839 71.0037C188.047 59.7397 186.64 50.6168 185.719 44.3044C185.258 41.1482 184.919 38.6952 184.71 37.0283C184.502 35.3614 184.426 34.4813 184.492 34.4718C184.558 34.4622 184.764 35.3232 185.09 36.9732C185.417 38.6225 185.866 41.0601 186.422 44.2024C187.533 50.4869 189.067 59.5914 190.909 70.8481C194.598 93.3606 199.494 124.488 204.843 158.869Z" fill="#EBEBEB"/>
<path d="M213.089 158.325C212.806 193.099 212.55 224.567 212.364 247.376C212.329 258.755 212.301 267.967 212.28 274.363C212.294 277.532 212.305 279.998 212.313 281.701C212.326 282.523 212.336 283.155 212.344 283.609C212.355 284.039 212.369 284.259 212.383 284.259C212.396 284.259 212.411 284.039 212.426 283.61C212.437 283.156 212.451 282.523 212.47 281.702C212.489 280 212.517 277.534 212.553 274.365C212.576 267.968 212.611 258.757 212.653 247.379C212.624 224.569 212.583 193.099 212.538 158.325C212.465 123.568 212.453 92.0936 212.584 69.3081C212.648 57.9149 212.744 48.6951 212.86 42.3233C212.918 39.137 212.981 36.6634 213.046 34.9862C213.111 33.309 213.178 32.4282 213.244 32.4282C213.31 32.4282 213.371 33.3098 213.425 34.9877C213.479 36.6656 213.524 39.1399 213.561 42.3262C213.634 48.6988 213.666 57.9193 213.652 69.3125C213.628 92.0958 213.399 123.57 213.089 158.325Z" fill="#EBEBEB"/>
<path d="M221.329 159.004C215.374 193.312 209.986 224.36 206.08 246.865C204.19 258.1 202.66 267.196 201.597 273.512C201.095 276.645 200.705 279.082 200.435 280.765C200.315 281.579 200.223 282.206 200.157 282.655C200.099 283.082 200.076 283.301 200.09 283.303C200.105 283.306 200.156 283.091 200.241 282.668C200.325 282.222 200.444 281.598 200.597 280.79C200.894 279.111 201.325 276.679 201.878 273.554C202.945 267.239 204.482 258.145 206.381 246.91C210.07 224.372 215.16 193.279 220.785 158.92C226.379 124.574 231.496 93.4786 235.343 70.9896C237.264 59.7447 238.863 50.6504 240.019 44.3733C240.597 41.2347 241.064 38.8 241.402 37.1529C241.741 35.5058 241.953 34.6456 242.019 34.6559C242.085 34.6661 242.003 35.5455 241.783 37.2109C241.564 38.8764 241.206 41.3272 240.723 44.4804C239.757 50.787 238.286 59.9003 236.413 71.1525C232.672 93.6584 227.308 124.716 221.329 159.004Z" fill="#EBEBEB"/>
<path d="M229.356 160.902C217.801 193.889 207.345 223.741 199.766 245.379C196.042 256.191 193.028 264.943 190.934 271.022C189.921 274.04 189.132 276.389 188.588 278.011C188.335 278.796 188.14 279.401 188 279.835C187.873 280.248 187.814 280.462 187.829 280.466C187.842 280.47 187.929 280.266 188.082 279.861C188.24 279.432 188.459 278.836 188.745 278.06C189.317 276.446 190.144 274.109 191.208 271.107C193.306 265.031 196.328 256.281 200.061 245.472C207.43 223.768 217.595 193.825 228.829 160.738C240.029 127.659 250.222 97.7183 257.74 76.0873C261.497 65.2711 264.58 56.5299 266.761 50.5052C267.85 47.4921 268.715 45.1587 269.322 43.5828C269.93 42.0069 270.281 41.19 270.345 41.2098C270.409 41.2296 270.183 42.0862 269.691 43.6981C269.2 45.3099 268.442 47.6771 267.444 50.7188C265.448 56.8022 262.489 65.5816 258.78 76.4125C251.365 98.0757 240.932 127.941 229.356 160.902Z" fill="#EBEBEB"/>
<path d="M236.96 163.98C220.102 194.825 204.847 222.739 193.789 242.972C188.324 253.091 183.9 261.283 180.829 266.971C179.329 269.8 178.162 272.001 177.357 273.52C176.977 274.259 176.684 274.827 176.474 275.233C176.28 275.622 176.186 275.824 176.199 275.829C176.212 275.836 176.331 275.646 176.549 275.27C176.775 274.871 177.091 274.314 177.5 273.591C178.33 272.083 179.533 269.899 181.079 267.093C184.155 261.407 188.585 253.219 194.057 243.103C204.921 222.775 219.911 194.73 236.473 163.74C253.003 132.753 268.018 104.715 279.015 84.4792C284.512 74.3603 289 66.1902 292.147 60.5662C293.72 57.7543 294.958 55.578 295.818 54.1129C296.677 52.6479 297.159 51.8926 297.218 51.9212C297.277 51.9506 296.911 52.7616 296.158 54.2795C295.405 55.7974 294.265 58.0207 292.776 60.8745C289.799 66.5821 285.426 74.808 279.972 84.9483C269.07 105.232 253.835 133.162 236.96 163.98Z" fill="#EBEBEB"/>
<path d="M243.966 168.155C222.252 196.112 202.602 221.411 188.359 239.748C181.301 248.929 175.587 256.361 171.62 261.522C169.674 264.093 168.16 266.093 167.115 267.474C166.618 268.147 166.235 268.664 165.962 269.035C165.706 269.39 165.581 269.576 165.593 269.584C165.604 269.592 165.752 269.422 166.03 269.083C166.318 268.723 166.722 268.219 167.245 267.566C168.313 266.201 169.859 264.223 171.846 261.681C175.818 256.522 181.537 249.094 188.602 239.918C202.669 221.457 222.076 195.988 243.522 167.845C264.934 139.7 284.367 114.242 298.551 95.8929C305.641 86.7172 311.415 79.3155 315.446 74.2296C317.463 71.6863 319.042 69.7214 320.132 68.4024C321.222 67.0827 321.82 66.4089 321.874 66.4463C321.928 66.4837 321.434 67.2309 320.441 68.6182C319.448 70.0047 317.957 72.032 316.019 74.6289C312.141 79.8227 306.471 87.297 299.421 96.5007C285.324 114.911 265.692 140.229 243.966 168.155Z" fill="#EBEBEB"/>
<path d="M250.202 173.32C224.187 197.719 200.645 219.799 183.581 235.804C175.109 243.828 168.252 250.323 163.489 254.833C161.147 257.084 159.324 258.836 158.066 260.045C157.466 260.636 157.003 261.091 156.672 261.416C156.362 261.728 156.207 261.894 156.217 261.903C156.227 261.913 156.401 261.767 156.731 261.473C157.075 261.16 157.556 260.722 158.18 260.154C159.457 258.963 161.308 257.239 163.686 255.022C168.451 250.514 175.314 244.024 183.791 236.005C200.702 219.854 224.032 197.57 249.814 172.947C275.562 148.317 298.916 126.048 315.923 110.023C324.425 102.009 331.338 95.553 336.151 91.1263C338.558 88.9125 340.439 87.206 341.731 86.0639C343.022 84.9218 343.724 84.3449 343.771 84.3896C343.818 84.4344 343.207 85.0994 342 86.3222C340.793 87.5451 338.989 89.3265 336.65 91.6041C331.971 96.16 325.149 102.704 316.682 110.751C299.751 126.849 276.224 148.951 250.202 173.32Z" fill="#EBEBEB"/>
<path d="M255.518 179.343C225.835 199.591 198.973 217.916 179.503 231.197C169.824 237.868 161.989 243.269 156.548 247.019C153.866 248.896 151.78 250.356 150.34 251.364C149.65 251.859 149.119 252.239 148.739 252.512C148.381 252.774 148.202 252.914 148.21 252.925C148.219 252.936 148.414 252.818 148.788 252.577C149.179 252.318 149.725 251.957 150.434 251.488C151.891 250.501 154 249.072 156.712 247.235C162.156 243.488 169.994 238.093 179.678 231.429C199.021 217.978 225.707 199.423 255.195 178.917C284.652 158.4 311.357 139.861 330.775 126.551C340.483 119.894 348.366 114.541 353.843 110.881C356.582 109.05 358.719 107.643 360.181 106.707C361.644 105.77 362.432 105.304 362.47 105.355C362.509 105.407 361.798 105.973 360.406 107.002C359.013 108.032 356.941 109.525 354.258 111.428C348.892 115.236 341.086 120.689 331.407 127.383C312.053 140.778 285.202 159.126 255.518 179.343Z" fill="#EBEBEB"/>
<path d="M259.783 186.082C227.141 201.661 197.602 215.759 176.19 225.978C165.536 231.126 156.91 235.293 150.921 238.187C147.965 239.642 145.665 240.774 144.077 241.556C143.315 241.942 142.728 242.238 142.308 242.451C141.911 242.658 141.711 242.769 141.718 242.781C141.725 242.793 141.937 242.706 142.346 242.523C142.774 242.326 143.373 242.051 144.151 241.694C145.751 240.936 148.07 239.838 151.049 238.427C157.041 235.538 165.669 231.377 176.328 226.236C197.64 215.831 227.043 201.476 259.535 185.612C291.997 169.733 321.416 155.398 342.78 145.143C353.461 140.013 362.126 135.899 368.136 133.101C371.142 131.701 373.484 130.629 375.083 129.922C376.681 129.216 377.536 128.873 377.566 128.929C377.596 128.987 376.8 129.44 375.257 130.25C373.713 131.059 371.421 132.225 368.459 133.706C362.534 136.669 353.928 140.892 343.27 146.064C321.954 156.411 292.421 170.535 259.783 186.082Z" fill="#EBEBEB"/>
<path d="M262.886 193.375C228.076 203.868 196.576 213.364 173.742 220.248C162.37 223.736 153.164 226.559 146.771 228.519C143.612 229.513 141.153 230.287 139.456 230.82C138.64 231.087 138.011 231.293 137.561 231.44C137.136 231.584 136.92 231.664 136.925 231.678C136.929 231.691 137.153 231.636 137.587 231.518C138.043 231.387 138.679 231.206 139.506 230.969C141.213 230.461 143.683 229.724 146.859 228.778C153.253 226.823 162.461 224.006 173.836 220.527C196.602 213.444 228.01 203.672 262.717 192.875C297.397 182.057 328.819 172.308 351.61 165.382C363.006 161.917 372.241 159.152 378.64 157.29C381.84 156.358 384.33 155.651 386.025 155.192C387.721 154.733 388.621 154.523 388.642 154.584C388.662 154.645 387.801 154.974 386.144 155.543C384.486 156.111 382.029 156.919 378.859 157.938C372.519 159.976 363.323 162.858 351.943 166.368C329.184 173.391 297.686 182.913 262.886 193.375Z" fill="#EBEBEB"/>
<path d="M264.744 201.045C228.635 206.192 195.958 210.849 172.271 214.225C160.465 215.964 150.907 217.373 144.27 218.351C140.986 218.859 138.43 219.253 136.665 219.526C135.815 219.667 135.161 219.776 134.692 219.855C134.248 219.933 134.021 219.98 134.024 219.993C134.026 220.007 134.256 219.987 134.705 219.934C135.177 219.874 135.836 219.789 136.691 219.68C138.459 219.433 141.021 219.076 144.313 218.617C150.951 217.644 160.51 216.242 172.318 214.511C195.971 210.929 228.601 205.987 264.659 200.527C300.695 195.042 333.336 190.125 356.988 186.7C368.814 184.985 378.391 183.64 385.018 182.759C388.332 182.318 390.908 181.993 392.658 181.794C394.408 181.595 395.331 181.521 395.342 181.585C395.353 181.648 394.448 181.844 392.716 182.156C390.985 182.468 388.426 182.898 385.127 183.428C378.529 184.49 368.971 185.958 357.153 187.719C333.518 191.245 300.838 195.928 264.744 201.045Z" fill="#EBEBEB"/>
<path d="M311.953 297.607C307.652 292.72 301.705 289.777 297.571 288.654C293.7 287.602 287.832 286.643 281.858 288.05C278.148 288.924 274.898 290.613 272.2 293.069C269.004 295.979 266.564 299.991 264.947 304.994C264.705 305.745 264.785 306.539 265.175 307.232C265.565 307.928 266.215 308.43 267.005 308.644L277.154 311.403C278.585 311.792 280.118 311.095 280.717 309.781C282.063 306.829 285.46 302.167 293.092 304.106C298.907 305.585 300.114 310.277 300.363 312.227C300.77 315.4 299.476 318.681 296.902 321.002C292.948 324.568 287.788 323.876 285.065 323.146C281.932 322.307 278.671 324.068 277.796 327.072L274.722 337.62C274.273 339.161 275.205 340.766 276.8 341.2L286.689 343.888C288.284 344.321 289.946 343.421 290.395 341.88L291.041 339.664C291.056 339.611 291.104 339.575 291.163 339.571C293.624 339.421 298.501 338.767 303.506 336.075C309.896 332.638 314.23 327.139 316.39 319.73C319.481 309.127 315.683 301.846 311.953 297.607Z" fill="#E0E0E0"/>
<path d="M281.463 345.333L280.598 345.098C276.463 343.973 272.151 346.308 270.987 350.303C269.823 354.297 272.24 358.461 276.376 359.585L277.241 359.82C281.376 360.944 285.688 358.609 286.852 354.615C288.016 350.62 285.599 346.457 281.463 345.333Z" fill="#E0E0E0"/>
<path d="M333.747 239.189C330.761 237.609 327.354 237.253 325.161 237.446C323.108 237.627 320.116 238.207 317.522 239.937C315.911 241.013 314.675 242.396 313.849 244.05C312.871 246.009 312.463 248.362 312.638 251.044C312.665 251.446 312.854 251.812 313.172 252.075C313.491 252.339 313.897 252.464 314.316 252.427L319.7 251.952C320.46 251.885 321.061 251.281 321.098 250.545C321.183 248.894 321.925 246.06 325.948 245.638C329.014 245.317 330.481 247.35 330.971 248.24C331.767 249.687 331.77 251.487 330.978 253.054C329.762 255.461 327.159 256.043 325.716 256.176C324.057 256.328 322.83 257.749 322.98 259.342L323.509 264.937C323.587 265.754 324.337 266.358 325.183 266.284L330.429 265.822C331.275 265.747 331.9 265.022 331.823 264.205L331.712 263.029C331.709 263.001 331.725 262.975 331.752 262.963C332.902 262.456 335.114 261.279 337 259.104C339.408 256.328 340.44 252.927 340.069 248.997C339.537 243.372 336.338 240.559 333.747 239.189Z" fill="#F5F5F5"/>
<path d="M328.201 267.439L327.742 267.479C325.549 267.673 323.927 269.554 324.127 271.673C324.328 273.792 326.275 275.357 328.469 275.164L328.928 275.124C331.121 274.93 332.743 273.05 332.543 270.931C332.343 268.812 330.395 267.245 328.201 267.439Z" fill="#F5F5F5"/>
<path d="M118.149 119.738C116.126 117.813 113.476 116.777 111.671 116.449C109.981 116.143 107.443 115.948 104.954 116.766C103.407 117.274 102.088 118.112 101.035 119.257C99.7872 120.613 98.9048 122.412 98.4123 124.602C98.3386 124.931 98.404 125.266 98.597 125.547C98.7908 125.83 99.0872 126.019 99.4323 126.082L103.865 126.887C104.49 127.001 105.116 126.648 105.319 126.065C105.777 124.759 107.042 122.649 110.369 123.196C112.905 123.614 113.602 125.569 113.786 126.39C114.083 127.727 113.66 129.172 112.655 130.254C111.11 131.918 108.884 131.812 107.695 131.6C106.328 131.357 105.008 132.226 104.752 133.538L103.855 138.144C103.725 138.817 104.185 139.467 104.881 139.593L109.199 140.377C109.895 140.503 110.569 140.059 110.699 139.387L110.888 138.419C110.892 138.396 110.911 138.379 110.936 138.375C111.978 138.221 114.03 137.765 116.057 136.435C118.645 134.738 120.277 132.237 120.906 129.001C121.807 124.371 119.904 121.408 118.149 119.738Z" fill="#F5F5F5"/>
<path d="M107.028 141.185L106.651 141.116C104.845 140.788 103.099 141.941 102.759 143.685C102.42 145.429 103.613 147.115 105.419 147.443L105.796 147.511C107.602 147.839 109.348 146.687 109.688 144.943C110.027 143.199 108.834 141.513 107.028 141.185Z" fill="#F5F5F5"/>
<path d="M325.727 121.209C322.747 119.618 319.342 119.249 317.149 119.434C315.094 119.607 312.1 120.175 309.499 121.896C307.884 122.965 306.642 124.344 305.81 125.995C304.823 127.95 304.406 130.301 304.57 132.984C304.594 133.386 304.783 133.753 305.099 134.017C305.417 134.283 305.823 134.409 306.242 134.374L311.627 133.92C312.387 133.856 312.991 133.253 313.032 132.518C313.123 130.866 313.877 128.036 317.901 127.629C320.968 127.32 322.428 129.359 322.913 130.25C323.704 131.701 323.699 133.501 322.901 135.065C321.675 137.468 319.07 138.039 317.626 138.166C315.966 138.312 314.733 139.728 314.877 141.322L315.383 146.919C315.457 147.737 316.206 148.343 317.052 148.272L322.299 147.829C323.146 147.758 323.774 147.035 323.7 146.217L323.594 145.041C323.591 145.013 323.607 144.987 323.635 144.975C324.787 144.472 327.003 143.305 328.898 141.137C331.317 138.37 332.364 134.973 332.008 131.042C331.501 125.416 328.312 122.589 325.727 121.209Z" fill="#EBEBEB"/>
<path d="M320.065 149.438L319.606 149.477C317.412 149.662 315.782 151.537 315.974 153.656C316.165 155.776 318.106 157.35 320.301 157.164L320.76 157.125C322.954 156.94 324.584 155.066 324.392 152.946C324.201 150.827 322.26 149.253 320.065 149.438Z" fill="#EBEBEB"/>
<path d="M163.806 290.348C160.077 288.651 155.933 288.464 153.299 288.853C150.831 289.218 147.26 290.131 144.257 292.408C142.392 293.822 141.004 295.582 140.132 297.639C139.1 300.076 138.786 302.949 139.203 306.177C139.265 306.662 139.522 307.091 139.926 307.386C140.332 307.683 140.833 307.805 141.336 307.73L147.806 306.773C148.719 306.638 149.399 305.864 149.389 304.973C149.366 302.972 150.047 299.494 154.876 298.698C158.556 298.092 160.485 300.445 161.145 301.485C162.218 303.178 162.359 305.353 161.521 307.303C160.234 310.299 157.134 311.187 155.4 311.45C153.407 311.753 152.032 313.556 152.335 315.472L153.401 322.195C153.557 323.177 154.511 323.853 155.528 323.704L161.831 322.771C162.848 322.621 163.548 321.7 163.393 320.718L163.169 319.305C163.163 319.271 163.181 319.238 163.213 319.222C164.564 318.527 167.147 316.948 169.26 314.185C171.958 310.658 172.946 306.475 172.198 301.752C171.124 294.992 167.042 291.819 163.806 290.348Z" fill="#EBEBEB"/>
<path d="M159.26 324.882L158.708 324.964C156.072 325.354 154.256 327.743 154.66 330.288C155.064 332.834 157.537 334.589 160.173 334.198L160.725 334.117C163.361 333.727 165.177 331.339 164.773 328.792C164.37 326.247 161.896 324.493 159.26 324.882Z" fill="#EBEBEB"/>
<path d="M107.074 163.112C101.83 160.739 96.0078 160.484 92.3066 161.038C88.841 161.557 83.825 162.848 79.6123 166.053C76.9956 168.045 75.0508 170.521 73.831 173.413C72.3862 176.84 71.9545 180.877 72.5473 185.411C72.6363 186.092 72.998 186.694 73.5665 187.107C74.1373 187.523 74.841 187.694 75.5478 187.588L84.6351 186.228C85.9173 186.037 86.8711 184.947 86.8543 183.695C86.8156 180.882 87.7633 175.995 94.5455 174.864C99.7151 174.005 102.431 177.306 103.361 178.766C104.873 181.142 105.076 184.196 103.905 186.939C102.104 191.151 97.7512 192.406 95.3154 192.78C92.5148 193.209 90.5882 195.747 91.0199 198.438L92.5353 207.882C92.7565 209.261 94.0987 210.209 95.5267 209.996L104.381 208.671C105.809 208.457 106.791 207.161 106.569 205.782L106.251 203.798C106.243 203.75 106.268 203.705 106.313 203.681C108.21 202.701 111.833 200.477 114.796 196.591C118.577 191.629 119.955 185.75 118.891 179.116C117.367 169.62 111.623 165.172 107.074 163.112Z" fill="#EBEBEB"/>
<path d="M100.776 211.643L100.002 211.759C96.2988 212.313 93.7528 215.673 94.3266 219.249C94.9004 222.825 98.3797 225.284 102.082 224.73L102.857 224.614C106.56 224.06 109.106 220.7 108.532 217.124C107.958 213.548 104.479 211.089 100.776 211.643Z" fill="#EBEBEB"/>
<path d="M235.066 103.295L241.916 104.398C245.283 108.285 249.893 111.26 255.422 112.681C268.462 116.032 282.258 109.117 286.953 96.8999C292.379 82.7829 284.093 67.1935 268.911 63.3018C256.022 59.9981 242.384 66.7032 237.549 78.7055C235.15 84.662 235.22 90.9002 237.23 96.4302L237.222 96.4184L235.066 103.295Z" fill="white"/>
<path d="M235.066 103.295C235.066 103.295 235.101 103.151 235.187 102.858C235.279 102.549 235.41 102.111 235.579 101.543C235.939 100.358 236.464 98.6305 237.143 96.3962L237.19 96.2413L237.286 96.3742L237.294 96.3859L237.152 96.4556C236.057 93.4683 235.126 89.2067 235.904 84.1795C236.282 81.678 237.112 79.0305 238.451 76.4042C239.813 73.7912 241.752 71.2398 244.261 69.0275C246.777 66.8285 249.871 64.9898 253.372 63.7919C256.864 62.6014 260.773 62.0061 264.744 62.4164C268.708 62.7929 272.706 64.0679 276.289 66.2009C279.89 68.3141 282.964 71.4101 285.166 75.0683C286.33 76.896 287.107 78.8998 287.772 80.897C287.923 81.4013 288.021 81.918 288.148 82.426C288.251 82.9383 288.424 83.4374 288.469 83.9571C288.533 84.4731 288.598 84.9876 288.662 85.5007L288.754 86.2692L288.767 87.0406C288.922 91.151 288.013 95.1645 286.361 98.7039C284.723 102.264 282.182 105.247 279.329 107.574C276.46 109.901 273.218 111.55 269.954 112.529C266.682 113.497 263.4 113.81 260.363 113.609C259.607 113.524 258.864 113.44 258.132 113.358C257.404 113.259 256.704 113.073 256.009 112.939C254.622 112.648 253.327 112.208 252.112 111.735C247.236 109.8 243.928 106.855 241.855 104.447L241.902 104.472C239.696 104.098 237.981 103.807 236.802 103.607C236.238 103.509 235.805 103.433 235.497 103.379C235.206 103.327 235.066 103.295 235.066 103.295C235.066 103.295 235.229 103.313 235.531 103.356C235.845 103.402 236.287 103.468 236.861 103.553C238.032 103.731 239.735 103.99 241.928 104.323L241.956 104.328L241.975 104.35C244.063 106.723 247.367 109.619 252.208 111.509C253.414 111.971 254.698 112.401 256.073 112.682C256.762 112.811 257.455 112.993 258.176 113.087C258.899 113.166 259.635 113.245 260.383 113.327C263.386 113.512 266.628 113.192 269.857 112.226C273.078 111.249 276.274 109.613 279.099 107.31C281.908 105.008 284.408 102.063 286.017 98.5519C287.639 95.061 288.532 91.104 288.375 87.0553L288.362 86.2949L288.271 85.5374C288.207 85.0324 288.143 84.5252 288.079 84.0173C288.035 83.5057 287.864 83.0139 287.762 82.5096C287.636 82.0098 287.54 81.5004 287.391 81.0035C286.735 79.0364 285.97 77.0626 284.822 75.2621C282.653 71.6582 279.627 68.6069 276.081 66.5231C272.553 64.4195 268.612 63.1585 264.707 62.7819C260.795 62.3716 256.938 62.9522 253.49 64.1193C250.034 65.2937 246.974 67.1008 244.482 69.2653C241.998 71.4431 240.072 73.9571 238.715 76.5349C237.38 79.1259 236.544 81.7433 236.156 84.2184C235.358 89.192 236.248 93.4257 237.303 96.4057L237.495 96.9496L237.161 96.4755L237.153 96.4637L237.296 96.4424C236.584 98.6459 236.034 100.35 235.656 101.517C235.468 102.09 235.325 102.529 235.222 102.84C235.125 103.137 235.066 103.295 235.066 103.295Z" fill="#263238"/>
<path d="M267.778 76.2144C265.751 74.9166 263.349 74.466 261.777 74.4762C260.305 74.4858 258.139 74.7243 256.185 75.8055C254.972 76.4771 254.006 77.3902 253.316 78.5191C252.497 79.8565 252.061 81.5072 252.019 83.4259C252.013 83.7136 252.125 83.9852 252.334 84.1907C252.545 84.397 252.827 84.51 253.127 84.5078L256.988 84.4821C257.533 84.4785 257.998 84.0828 258.071 83.5617C258.234 82.391 258.939 80.418 261.828 80.3504C264.029 80.3005 264.947 81.8324 265.241 82.4937C265.717 83.5705 265.608 84.8513 264.947 85.9208C263.931 87.5635 262.043 87.8262 261.008 87.8365C259.817 87.8483 258.855 88.7885 258.864 89.9313L258.892 93.9441C258.896 94.5299 259.393 95.0033 260 94.9996L263.762 94.9747C264.368 94.971 264.858 94.491 264.855 93.9045L264.849 93.0611C264.849 93.0406 264.862 93.023 264.881 93.0164C265.732 92.722 267.378 92.0137 268.856 90.5751C270.742 88.7386 271.689 86.3788 271.669 83.5602C271.638 79.5284 269.536 77.3396 267.778 76.2144Z" fill="#227259"/>
<path d="M262.073 95.9971L261.744 95.9993C260.171 96.0096 258.899 97.2545 258.91 98.7739C258.921 100.293 260.21 101.521 261.783 101.511L262.112 101.509C263.685 101.498 264.957 100.254 264.946 98.7342C264.935 97.2148 263.646 95.9869 262.073 95.9971Z" fill="#227259"/>
<path d="M272.557 136.382C254.613 124.726 233.277 120.573 219.294 120.573C206.199 120.573 186.927 122.568 169.483 132.07C158.65 137.972 150.007 146.035 143.792 156.036C136.431 167.881 132.448 182.538 131.951 199.6C131.877 202.159 132.856 204.581 134.709 206.421C136.57 208.27 139.065 209.288 141.735 209.288H176.073C180.918 209.288 185.084 205.797 185.761 201.167C187.284 190.768 193.675 173.258 219.371 172.83C238.946 172.505 247.024 186.192 249.588 192.092C253.761 201.694 252.703 213.08 246.756 222.55C237.619 237.1 220.81 239.327 211.604 239.36C201.017 239.397 192.403 247.698 192.403 257.863V293.549C192.403 298.76 196.793 303 202.189 303H235.644C241.04 303 245.43 298.76 245.43 293.549V286.051C245.43 285.871 245.546 285.715 245.725 285.654C253.304 283.086 267.994 276.881 281.226 264.175C298.118 247.956 306.682 227.022 306.682 201.955C306.683 166.08 288.125 146.495 272.557 136.382Z" fill="#051B1D"/>
<path d="M218.075 319.646H220.776C234.062 319.646 244.871 330.086 244.871 342.917C244.871 355.749 234.062 366.189 220.776 366.189H218.075C204.789 366.189 193.979 355.749 193.979 342.917C193.979 330.085 204.789 319.646 218.075 319.646Z" fill="#227259"/>
<path d="M202.061 309.9H235.502C240.896 309.9 245.284 305.795 245.284 300.748V286.159C245.284 285.985 245.4 285.833 245.58 285.775C249.532 284.477 255.063 282.097 261.32 278.383C239.953 278.238 201.007 278.027 192.278 278.335V300.748C192.279 305.795 196.667 309.9 202.061 309.9Z" fill="#263238"/>
<path d="M229.604 148.239L208.143 88.0504C203.612 72.9799 190.753 62.9659 175.28 67.759L173.877 68.2823C159.757 73.551 152.187 88.4057 156.49 102.422C160.493 115.463 165.089 129.822 167.891 136.575C173.69 150.554 188.871 146.63 188.871 146.63C188.904 146.619 192.25 155.948 193.713 160.135L201.572 167.636L204.819 164.21L229.604 148.239Z" fill="#FFBF9D"/>
<path d="M188.87 146.63C188.87 146.63 198.244 143.729 205.643 134.157C205.643 134.157 205.312 146.417 190.293 150.567L188.87 146.63Z" fill="#B4907F"/>
<path d="M166.989 111.927C167.374 113 168.633 113.571 169.801 113.203C170.967 112.836 171.603 111.67 171.219 110.596C170.834 109.522 169.575 108.95 168.408 109.317C167.24 109.684 166.605 110.853 166.989 111.927Z" fill="#263238"/>
<path d="M161.824 106.79C162.186 106.955 163.309 105.244 165.548 104.416C167.77 103.557 169.855 104.056 169.991 103.701C170.063 103.539 169.612 103.165 168.697 102.929C167.794 102.692 166.4 102.653 165.01 103.178C163.621 103.705 162.648 104.637 162.178 105.395C161.694 106.16 161.65 106.72 161.824 106.79Z" fill="#263238"/>
<path d="M185.676 104.77C186.039 104.935 187.165 103.224 189.4 102.396C191.622 101.538 193.707 102.036 193.844 101.681C193.915 101.519 193.468 101.145 192.55 100.91C191.647 100.672 190.253 100.633 188.863 101.158C187.474 101.686 186.501 102.617 186.03 103.375C185.549 104.14 185.504 104.7 185.676 104.77Z" fill="#263238"/>
<path d="M182.551 118.693C182.512 118.567 181.03 118.853 178.668 119.415C178.074 119.571 177.49 119.664 177.243 119.323C176.95 118.975 176.951 118.292 176.971 117.547C176.974 116.013 176.976 114.405 176.979 112.72C176.933 105.87 176.664 100.323 176.378 100.327C176.092 100.332 175.898 105.887 175.945 112.738C175.97 114.422 175.992 116.027 176.017 117.563C176.052 118.27 175.964 119.119 176.586 119.837C176.904 120.191 177.443 120.334 177.847 120.293C178.257 120.264 178.58 120.15 178.868 120.061C181.182 119.334 182.591 118.82 182.551 118.693Z" fill="#263238"/>
<path d="M180.508 92.634C181.033 93.0715 182.969 91.6827 185.587 90.6434C188.184 89.5519 190.565 89.1769 190.605 88.5089C190.613 88.1948 189.97 87.8645 188.862 87.7654C187.762 87.6626 186.205 87.8417 184.64 88.4796C183.077 89.1196 181.86 90.0746 181.17 90.9084C180.472 91.7451 180.268 92.4211 180.508 92.634Z" fill="#263238"/>
<path d="M159.183 100.482C159.839 100.808 161.473 99.6439 163.665 98.8351C165.831 97.9638 167.855 97.7172 168.087 97.0478C168.179 96.7307 167.697 96.3417 166.705 96.1648C165.724 95.9857 164.237 96.0848 162.739 96.6609C161.242 97.2393 160.102 98.1539 159.53 98.9312C158.946 99.7159 158.885 100.315 159.183 100.482Z" fill="#263238"/>
<path d="M210.877 98.2132C211.083 98.0172 219.728 91.6299 223.252 101.351C226.776 111.072 215.944 112.484 215.825 112.211C215.707 111.938 210.877 98.2132 210.877 98.2132Z" fill="#FFBF9D"/>
<path d="M217.565 107.489C217.598 107.443 217.783 107.548 218.128 107.579C218.463 107.61 218.992 107.529 219.448 107.162C220.374 106.426 220.679 104.492 220.092 102.723C219.797 101.83 219.299 101.053 218.723 100.465C218.157 99.8577 217.501 99.5216 216.932 99.6111C216.356 99.6728 216.089 100.11 216.066 100.425C216.029 100.742 216.164 100.915 216.116 100.95C216.097 100.984 215.841 100.86 215.776 100.431C215.748 100.223 215.782 99.9546 215.952 99.6882C216.124 99.4166 216.444 99.2001 216.831 99.1127C217.626 98.9021 218.574 99.3557 219.209 100C219.887 100.634 220.468 101.501 220.799 102.505C221.444 104.485 221.071 106.669 219.763 107.568C219.119 107.986 218.454 107.979 218.066 107.852C217.668 107.717 217.536 107.518 217.565 107.489Z" fill="#B4907F"/>
<path d="M190.147 117.714C189.793 117.807 190.565 120.051 189.129 122.285C187.698 124.524 185.135 125.071 185.226 125.391C185.242 125.543 185.928 125.649 186.983 125.339C188.019 125.041 189.406 124.24 190.285 122.873C191.159 121.504 191.229 120.033 190.99 119.088C190.753 118.122 190.302 117.65 190.147 117.714Z" fill="#263238"/>
<path d="M131.358 95.5953C131.309 94.9692 131.568 94.3512 131.987 93.8704C132.9 92.8208 134.259 92.4567 135.534 92.0002C138.708 90.8647 141.586 88.9989 143.923 86.6354C142.754 86.4871 141.612 86.2126 140.548 85.7216C138.35 84.7086 136.541 82.6277 136.52 80.2767C136.516 79.8356 136.602 79.3424 136.969 79.0796C137.552 78.6634 138.35 79.0884 138.985 79.4253C141.073 80.5322 142.71 80.7553 144.865 79.7769C146.203 79.1691 147.438 78.4109 148.29 77.3833C148.318 77.3246 148.339 77.2629 148.367 77.205C148.7 76.5055 149.029 75.8338 149.357 75.1813C149.357 75.1791 149.358 75.1776 149.358 75.1754L149.357 75.1791C151.819 70.2665 154.157 66.6478 157.033 64.2051C161.247 60.6246 169.178 57.0559 174.771 56.6111C180.365 56.1663 186.427 58.6135 188.988 63.4373C191.004 60.1152 195.322 58.6685 199.315 58.8359L199.39 58.7691C203.774 58.7845 207.437 62.006 209.986 65.4507C210.125 65.6393 210.257 65.8331 210.393 66.0239C212.446 67.5925 214.866 68.7104 217.438 69.1845C217.892 69.2682 218.418 69.3805 218.616 69.7835C218.813 70.1828 218.576 70.6496 218.313 71.0122C217.615 71.9759 216.682 72.7701 215.623 73.35C216.311 74.1405 217.052 74.884 217.878 75.5542C218.581 76.1238 219.417 76.8071 219.306 77.6857C219.22 78.3654 218.546 78.8623 217.849 78.9944C217.154 79.1258 216.438 78.9717 215.747 78.819C216.548 79.6756 217.349 80.5329 218.15 81.3895C216.827 82.1059 215.328 82.4934 213.813 82.558C214.294 86.4269 216.096 93.2825 216.027 96.0394C213.374 96.9929 212.623 96.9334 211.433 97.8237C209.895 98.9747 211.646 101.726 209.071 101.652C207.76 101.613 204.448 97.9926 203.647 96.9885C198.336 90.3274 194.542 82.5477 192.594 74.3548C190.375 73.2428 187.932 72.5485 185.443 72.3209L185.673 72.4134C181.056 72.4332 175.909 72.6593 172.687 75.8522C170.188 78.3287 169.516 81.9679 168.136 85.1586C165.52 91.206 161.559 95.3061 155.261 97.7481C156.249 102.233 158.637 109.305 159.88 113.381L153.42 106.575L153.429 106.608C152.971 106.235 152.563 105.843 152.162 105.446L152.031 105.329L152.025 105.311C151.385 104.673 150.762 104.028 150.029 103.431C150.02 103.447 150.011 103.462 150.002 103.478C148.455 106.155 144.079 104.356 145 101.422C145.182 100.84 145.452 100.285 145.808 99.7806C145.122 101.06 143.754 102.027 142.263 102.085C140.772 102.144 139.248 101.184 138.871 99.7894C138.613 98.8374 138.996 97.7782 139.728 97.1184C137.964 97.87 135.969 98.1203 134.071 97.7871C132.825 97.5676 131.466 96.9745 131.358 95.5953Z" fill="#263238"/>
<path d="M184.951 66.6455C184.935 66.6925 185.705 66.8114 186.903 67.447C188.092 68.0812 189.635 69.3642 190.885 71.3989C191.513 72.4074 192.102 73.5745 192.579 74.8839C193.062 76.1912 193.465 77.6306 193.9 79.1433C194.34 80.6546 194.8 82.2525 195.491 83.8431C195.836 84.6366 196.238 85.4271 196.721 86.1897C197.201 86.9362 197.742 87.7407 198.63 88.2222C199.341 88.6178 200.276 88.5833 200.953 88.1899C201.643 87.8141 202.159 87.2129 202.45 86.534C203.008 85.1445 202.751 83.7095 202.55 82.4368L202.254 82.5777C203.15 83.4783 204.056 84.3621 205.132 84.9471C206.197 85.5416 207.448 85.7486 208.545 85.4785C209.091 85.3442 209.595 85.0814 209.969 84.7056C210.353 84.3298 210.555 83.8439 210.642 83.3734C210.717 82.8992 210.672 82.4214 210.495 82.0067C210.316 81.5934 210 81.2506 209.619 81.062L209.512 81.2499C211.102 82.1124 212.546 82.3759 213.51 82.4654C213.996 82.5094 214.371 82.5065 214.624 82.4999C214.876 82.4874 215.006 82.4742 215.006 82.4647C215.005 82.4537 214.874 82.4478 214.624 82.4405C214.373 82.4287 214.002 82.4118 213.523 82.3509C212.574 82.2276 211.162 81.934 209.623 81.0649L209.515 81.2521C210.196 81.5905 210.549 82.4705 210.384 83.3315C210.298 83.758 210.11 84.1932 209.768 84.5169C209.433 84.8472 208.973 85.0843 208.472 85.2018C207.462 85.4403 206.294 85.2436 205.291 84.6748C204.272 84.1125 203.394 83.2515 202.503 82.3472L202.125 81.9634L202.207 82.4889C202.407 83.7609 202.63 85.146 202.117 86.4026C201.857 87.0111 201.381 87.5564 200.777 87.8838C200.176 88.2236 199.42 88.2501 198.802 87.9132C198.03 87.4992 197.5 86.7432 197.029 86.0077C196.557 85.2641 196.161 84.4912 195.82 83.711C195.137 82.1491 194.672 80.5636 194.224 79.0567C193.78 77.5469 193.365 76.1053 192.863 74.7856C192.368 73.4644 191.756 72.2856 191.104 71.269C189.806 69.2189 188.201 67.9344 186.971 67.3281C185.729 66.7174 184.951 66.6455 184.951 66.6455Z" fill="#455A64"/>
<path d="M144.457 95.9769C144.455 95.982 144.507 96.0019 144.611 96.0334C144.735 96.0694 144.887 96.1134 145.073 96.167C145.276 96.2287 145.529 96.2947 145.837 96.341C146.143 96.3953 146.495 96.468 146.899 96.4914C148.495 96.6537 150.915 96.5311 153.6 95.4418C156.261 94.3702 159.181 92.3326 161.328 89.2498C163.525 86.2066 165.007 82.3194 165.861 78.1561C166.304 76.0701 166.532 74.0083 166.9 72.0514C167.261 70.0953 167.766 68.2288 168.611 66.6037C169.438 64.9771 170.582 63.5943 171.946 62.6739C172.62 62.2012 173.361 61.8936 174.092 61.6639C174.831 61.4539 175.571 61.3615 176.278 61.3468C177.697 61.3262 178.968 61.6551 179.999 62.0874C181.034 62.5249 181.828 63.0893 182.419 63.6031C183.565 64.6821 183.909 65.5086 183.957 65.4763C183.963 65.4733 183.94 65.4249 183.89 65.3309C183.828 65.2194 183.754 65.0843 183.662 64.9192C183.451 64.5632 183.08 64.0692 182.517 63.504C181.931 62.9653 181.133 62.3722 180.081 61.9068C179.035 61.4473 177.738 61.0921 176.275 61.0972C175.546 61.1046 174.781 61.1919 174.011 61.4026C173.252 61.6323 172.472 61.9501 171.772 62.4338C170.35 63.377 169.163 64.7988 168.309 66.4584C167.436 68.1187 166.916 70.0197 166.548 71.9898C166.173 73.9628 165.942 76.0202 165.503 78.0871C164.656 82.2195 163.198 86.0598 161.051 89.0656C158.951 92.1117 156.108 94.125 153.499 95.2128C150.87 96.3138 148.493 96.4731 146.911 96.3549C145.316 96.2309 144.469 95.927 144.457 95.9769Z" fill="#455A64"/>
<path d="M140.838 90.1848C140.833 90.209 141.067 90.2699 141.495 90.3602C141.922 90.4578 142.555 90.543 143.338 90.5951C144.123 90.6531 145.064 90.6369 146.1 90.5378C147.135 90.4211 148.264 90.2112 149.413 89.8662C150.559 89.5088 151.607 89.0522 152.523 88.5729C153.43 88.0767 154.208 87.5681 154.815 87.0844C155.425 86.6058 155.891 86.1852 156.182 85.8674C156.479 85.5547 156.633 85.3756 156.615 85.3587C156.565 85.3118 155.9 85.9929 154.657 86.8869C154.039 87.3391 153.26 87.8169 152.362 88.2874C151.455 88.7417 150.425 89.1799 149.301 89.5301C148.175 89.8677 147.071 90.0828 146.059 90.2156C145.045 90.3301 144.122 90.372 143.348 90.3463C141.8 90.3059 140.85 90.1195 140.838 90.1848Z" fill="#455A64"/>
<path d="M168.402 191.931C168.27 191.967 169.993 200.3 171.68 208.943H172.214C170.527 200.3 168.534 191.894 168.402 191.931Z" fill="#263238"/>
<path d="M175.683 209.36C180.561 209.36 185.051 205.966 185.733 201.343C187.266 190.959 193.401 173.382 219.267 172.954C238.971 172.63 247.265 186.1 249.588 192.091C253.276 201.602 252.818 213.146 246.832 222.602C237.635 237.13 220.715 239.354 211.448 239.387C200.791 239.425 192.121 247.713 192.121 257.864V296.665L245.499 295.695V286.01C245.499 285.83 245.616 285.676 245.797 285.615C252.299 283.429 262.607 279.285 274.207 270.252L270.732 225.566C270.732 225.566 280.89 206.71 280.387 202.468C275.787 163.71 262.139 141.78 256.592 139.734C250.364 137.438 226.317 138.556 226.317 138.556C226.317 138.556 215.932 157.14 201.362 159.199C193.255 160.345 190.295 150.567 190.295 150.567L171.463 161.23C158.06 167.759 155.46 193.161 155.213 209.36H175.683Z" fill="#455A64"/>
<g opacity="0.3">
<path d="M237.541 232.19C248.3 234.836 258.908 238.182 269.667 240.827C270.465 241.023 271.315 241.25 271.854 241.852C272.646 242.738 272.468 244.083 272.113 245.202C270.982 248.774 268.541 251.862 265.635 254.327C263.294 256.313 260.49 257.989 257.383 258.223C253.924 258.484 250.598 256.934 247.673 255.132C240.193 250.521 233.809 243.785 229.798 236.141C229.798 236.141 232.321 235.138 234.251 234.141C236.044 233.216 237.541 232.19 237.541 232.19Z" fill="black"/>
</g>
<path d="M249.367 192.361C253.67 201.948 252.578 213.318 246.448 222.774C243.046 228.023 238.714 231.769 233.989 234.282C239.078 239.629 244.243 244.339 249.35 247.839C254.845 251.605 267.512 250.534 272.314 242.289C278.239 232.116 278.735 206.127 278.735 206.127C279.86 190.459 279.86 190.459 279.86 190.459L246.726 185.557L246.46 186.434C247.882 188.492 248.719 190.916 249.367 192.361Z" fill="#FFBF9D"/>
<path d="M191.672 185.777L189.786 188.649C188.352 189.605 186.987 189.08 186.1 187.304L165.704 157.321L170.673 154.269L193.2 183.022C193.2 183.022 193.518 184.547 191.672 185.777Z" fill="#455A64"/>
<path d="M144.548 156.806C140.555 154.63 137.206 151.273 135.133 146.96C132.581 141.647 132.323 135.691 134.408 130.191C136.494 124.69 140.671 120.303 146.174 117.837C157.531 112.748 171.058 117.531 176.328 128.499C178.881 133.813 179.138 139.769 177.053 145.269C174.968 150.77 170.79 155.156 165.289 157.622C158.398 160.71 150.707 160.163 144.548 156.806ZM166.165 119.931C160.418 116.798 153.243 116.289 146.814 119.17C141.681 121.47 137.782 125.563 135.836 130.696C133.891 135.828 134.131 141.385 136.513 146.342C138.895 151.3 143.132 155.065 148.447 156.944C153.761 158.823 159.514 158.591 164.648 156.291C169.781 153.991 173.68 149.897 175.625 144.765C177.571 139.633 177.33 134.076 174.948 129.118C173.016 125.094 169.89 121.961 166.165 119.931Z" fill="#263238"/>
<path d="M145.516 155.886C141.523 153.71 138.173 150.353 136.101 146.04C133.548 140.727 133.29 134.771 135.376 129.271C137.461 123.77 141.639 119.383 147.141 116.917C158.498 111.828 172.025 116.611 177.296 127.58C179.849 132.894 180.106 138.849 178.021 144.35C175.936 149.851 171.758 154.238 166.256 156.703C159.364 159.79 151.674 159.244 145.516 155.886ZM167.132 119.01C161.385 115.877 154.21 115.368 147.781 118.249C142.648 120.549 138.749 124.643 136.803 129.775C134.858 134.907 135.098 140.464 137.48 145.422C139.861 150.38 144.099 154.144 149.414 156.023C154.728 157.903 160.481 157.671 165.615 155.37C170.748 153.07 174.647 148.976 176.591 143.844C178.537 138.712 178.297 133.155 175.915 128.198C173.982 124.173 170.857 121.04 167.132 119.01Z" fill="#455A64"/>
<path d="M175.584 137.117C175.575 137.117 175.568 136.992 175.56 136.757C175.542 136.521 175.571 136.173 175.517 135.728C175.465 134.837 175.258 133.55 174.764 132.027C174.522 131.265 174.178 130.455 173.77 129.604C173.329 128.769 172.845 127.88 172.218 127.015C171.606 126.143 170.903 125.264 170.085 124.431C169.273 123.596 168.374 122.778 167.36 122.058C166.35 121.332 165.289 120.727 164.216 120.235C163.138 119.754 162.051 119.397 160.998 119.123C158.881 118.609 156.898 118.467 155.25 118.56C153.6 118.648 152.278 118.899 151.387 119.139C150.935 119.238 150.599 119.367 150.363 119.427C150.129 119.494 150.004 119.527 150.001 119.519C149.998 119.511 150.117 119.464 150.346 119.382C150.578 119.308 150.91 119.163 151.361 119.051C152.249 118.783 153.576 118.505 155.24 118.394C156.903 118.279 158.908 118.404 161.054 118.913C162.121 119.185 163.224 119.542 164.317 120.027C165.405 120.522 166.483 121.134 167.506 121.87C168.533 122.599 169.442 123.428 170.26 124.275C171.084 125.118 171.791 126.009 172.405 126.895C173.033 127.771 173.516 128.673 173.953 129.52C174.357 130.383 174.695 131.205 174.93 131.978C175.407 133.522 175.59 134.825 175.613 135.723C175.653 136.172 175.608 136.522 175.61 136.758C175.6 136.994 175.592 137.117 175.584 137.117Z" fill="white"/>
<path d="M151.89 154.968C151.906 154.914 152.942 155.287 154.691 155.517C154.911 155.543 155.14 155.569 155.378 155.597C155.617 155.623 155.868 155.624 156.127 155.639C156.644 155.679 157.198 155.653 157.779 155.642C158.941 155.575 160.212 155.405 161.513 155.075C162.809 154.729 163.997 154.258 165.037 153.753C165.545 153.48 166.038 153.234 166.464 152.948C166.679 152.809 166.897 152.688 167.09 152.549C167.281 152.409 167.465 152.275 167.642 152.147C169.034 151.098 169.737 150.273 169.779 150.312C169.792 150.323 169.615 150.525 169.284 150.884C169.121 151.067 168.915 151.283 168.651 151.51C168.39 151.74 168.107 152.02 167.749 152.277C167.574 152.412 167.391 152.551 167.201 152.696C167.008 152.84 166.792 152.968 166.576 153.112C166.15 153.408 165.655 153.664 165.142 153.946C164.095 154.469 162.891 154.953 161.577 155.304C160.259 155.638 158.968 155.803 157.79 155.859C157.201 155.864 156.64 155.883 156.117 155.834C155.855 155.814 155.602 155.809 155.361 155.778C155.12 155.745 154.889 155.713 154.668 155.682C154.225 155.635 153.835 155.529 153.49 155.456C153.143 155.388 152.852 155.301 152.616 155.222C152.142 155.073 151.884 154.984 151.89 154.968Z" fill="white"/>
<path d="M167.512 140.923C167.464 140.968 164.504 138.107 160.903 134.533C157.299 130.957 154.418 128.024 154.466 127.978C154.514 127.933 157.473 130.794 161.077 134.369C164.679 137.943 167.56 140.878 167.512 140.923Z" fill="white"/>
<path d="M164.018 146.667C164.012 146.672 163.937 146.603 163.802 146.464C163.652 146.305 163.459 146.103 163.22 145.851C162.7 145.292 161.982 144.52 161.103 143.576C159.319 141.654 156.846 139.006 154.082 136.109C151.316 133.212 148.783 130.617 146.944 128.743C146.041 127.821 145.303 127.067 144.769 126.521C144.528 126.271 144.335 126.068 144.183 125.911C144.052 125.77 143.985 125.693 143.991 125.687C143.997 125.681 144.075 125.748 144.218 125.878C144.378 126.028 144.582 126.22 144.836 126.457C145.37 126.964 146.132 127.705 147.068 128.628C148.939 130.473 151.493 133.052 154.26 135.95C157.026 138.848 159.48 141.515 161.232 143.467C162.109 144.443 162.812 145.237 163.291 145.792C163.516 146.055 163.698 146.268 163.839 146.433C163.962 146.581 164.024 146.661 164.018 146.667Z" fill="white"/>
<g opacity="0.3">
<path d="M145.504 119.81L173.383 149.058C173.383 149.058 171.127 152.106 169.06 153.433L140.593 123.501C140.593 123.501 142.645 121.112 145.504 119.81Z" fill="white"/>
</g>
<g opacity="0.3">
<path d="M138.195 126.873L165.615 155.369C165.615 155.369 165.87 155.504 163.981 155.965L137.421 128.319C137.421 128.319 137.56 127.626 138.195 126.873Z" fill="white"/>
</g>
<path d="M210.374 173.889C204.517 169.347 190.165 158.238 189.509 157.943C188.684 157.57 176.052 153.235 173.632 154.628C171.212 156.02 164.725 163.885 164.725 163.885C164.725 163.885 165.341 168.776 170.999 165.276C175.317 162.606 175.986 162.191 176.062 162.144C176.058 162.147 176.054 162.149 176.054 162.149L182.069 163.506C182.069 163.506 174.732 166.466 173.18 168.022C171.628 169.578 169.174 175.536 170.705 176.908C172.236 178.279 174.013 178.397 174.013 178.397C174.013 178.397 170.985 182.551 176.357 185.059C176.357 185.059 177.141 188.552 179.792 189.921C182.442 191.289 187.379 190.805 187.379 190.805C187.379 190.805 189.669 189.497 187.968 187.329C186.268 185.161 183.13 184.861 183.13 184.861L187.018 182.67C187.018 182.67 189.042 183.268 192.039 185.504C192.039 185.504 195.59 181.114 199.135 178.633C203.114 175.848 210.374 173.889 210.374 173.889Z" fill="#FFBF9D"/>
<path d="M185.478 175.735C185.476 175.718 185.27 175.722 184.9 175.768C184.531 175.813 184.001 175.915 183.364 176.112C182.097 176.495 180.397 177.344 179.004 178.807C177.611 180.27 176.878 181.977 176.588 183.228C176.439 183.857 176.378 184.376 176.362 184.736C176.345 185.095 176.359 185.294 176.376 185.294C176.431 185.299 176.442 184.5 176.785 183.277C177.12 182.06 177.863 180.416 179.216 178.995C180.569 177.573 182.203 176.721 183.43 176.297C184.664 175.865 185.487 175.787 185.478 175.735Z" fill="#B4907F"/>
<path d="M185.736 169.413C185.734 169.394 185.515 169.41 185.119 169.455C184.921 169.474 184.679 169.506 184.403 169.568C184.127 169.626 183.807 169.677 183.467 169.783C182.777 169.959 181.977 170.247 181.122 170.636C180.275 171.04 179.377 171.554 178.508 172.192C177.646 172.841 176.902 173.548 176.281 174.236C175.673 174.935 175.181 175.608 174.828 176.208C174.636 176.499 174.503 176.784 174.374 177.027C174.241 177.269 174.148 177.487 174.077 177.667C173.931 178.025 173.859 178.224 173.877 178.232C173.93 178.254 174.251 177.461 175.001 176.309C175.37 175.731 175.872 175.081 176.48 174.403C177.1 173.737 177.836 173.049 178.682 172.412C179.536 171.785 180.517 171.08 181.343 170.669C182.177 170.275 182.85 170.167 183.523 169.97C184.87 169.565 185.745 169.467 185.736 169.413Z" fill="#B4907F"/>
<path d="M186.835 162.152C186.843 162.122 186.54 162.008 186.018 161.974C185.5 161.938 184.764 162.017 184.025 162.319C183.026 162.731 182.674 163.133 182.384 163.466C182.047 163.851 181.921 164.141 181.949 164.157C182.016 164.215 182.714 163.141 184.137 162.574C185.547 161.979 186.832 162.239 186.835 162.152Z" fill="#B4907F"/>
<path d="M254.255 139.149C254.255 139.149 272.791 140.867 278.676 156.42C283.346 168.766 285.884 205.75 284.714 206.503L251.986 205.493C251.556 196.474 249.041 189.521 245.517 185.021L254.255 139.149Z" fill="#455A64"/>
<path d="M252.488 205.493C252.503 205.471 252.731 205.595 253.13 205.838C253.531 206.08 254.094 206.454 254.773 206.937C256.134 207.902 257.935 209.345 259.753 211.11C261.575 212.874 263.066 214.612 264.089 215.906C264.599 216.555 265 217.088 265.26 217.468C265.523 217.846 265.659 218.062 265.637 218.078C265.588 218.112 264.943 217.323 263.87 216.074C262.796 214.828 261.28 213.13 259.473 211.379C257.668 209.627 255.912 208.164 254.602 207.15C253.294 206.135 252.453 205.542 252.488 205.493Z" fill="#B4907F"/>
<path d="M248.59 167.449C248.698 167.467 248.097 171.415 247.248 176.267C246.4 181.12 245.624 185.039 245.516 185.021C245.409 185.004 246.009 181.056 246.858 176.203C247.707 171.351 248.482 167.432 248.59 167.449Z" fill="#263238"/>
<path d="M207.402 278.359C207.401 278.346 207.588 278.319 207.945 278.28C208.342 278.241 208.862 278.19 209.51 278.127C210.914 277.999 212.869 277.821 215.266 277.601C220.126 277.15 226.833 276.474 234.22 275.573C241.611 274.669 248.282 273.711 253.104 272.979C255.482 272.615 257.422 272.318 258.814 272.104C259.458 272.009 259.975 271.934 260.368 271.876C260.725 271.828 260.912 271.809 260.915 271.822C260.917 271.835 260.734 271.879 260.382 271.952C259.991 272.027 259.479 272.127 258.84 272.251C257.5 272.505 255.555 272.846 253.148 273.246C248.335 274.047 241.665 275.048 234.269 275.953C226.875 276.855 220.157 277.49 215.29 277.871C212.855 278.063 210.885 278.2 209.521 278.276C208.87 278.31 208.348 278.337 207.95 278.357C207.592 278.371 207.402 278.373 207.402 278.359Z" fill="#263238"/>
<path d="M204.508 273.634C204.508 273.608 204.988 273.567 205.857 273.516C206.791 273.468 208.034 273.404 209.539 273.327C212.709 273.17 216.973 272.959 221.685 272.725C226.397 272.462 230.66 272.223 233.828 272.046C235.334 271.964 236.576 271.897 237.51 271.846C238.379 271.805 238.862 271.795 238.863 271.821C238.866 271.848 238.388 271.908 237.521 271.994C236.655 272.082 235.4 272.192 233.848 272.315C230.744 272.563 226.453 272.856 221.706 273.107C216.962 273.357 212.663 273.517 209.55 273.597C207.994 273.637 206.734 273.66 205.863 273.664C204.991 273.67 204.509 273.661 204.508 273.634Z" fill="#263238"/>
<path d="M152.384 206.711C152.504 206.261 152.7 205.838 152.976 205.456C153.523 204.698 154.352 204.12 155.291 203.913C156.85 203.57 158.598 204.275 159.441 205.588C159.385 204.587 160.203 203.654 161.205 203.39C162.206 203.126 162.983 203.499 163.782 204.139C164.581 204.779 164.785 205.288 165.11 206.241C165.907 204.512 170.007 204.723 170.505 206.021C170.505 206.021 174.032 202.292 175.837 204.125C176.586 204.887 176.264 206.056 175.768 207.227C175.105 208.789 174.669 209.44 173.803 211.162L170.464 211.338C170.183 212.347 169.591 216.451 169.466 217.489C169.34 218.527 169.125 219.584 168.554 220.471C167.982 221.358 166.989 222.053 165.906 222.039C164.824 222.024 163.759 221.129 163.823 220.085C163.595 220.947 163.215 221.798 162.557 222.42C161.899 223.043 160.925 223.402 160.033 223.177C159.142 222.953 158.435 222.052 158.616 221.18C157.426 221.976 155.666 221.269 154.911 220.076C154.155 218.883 154.136 217.401 154.183 216.002C154.224 214.763 154.34 213.373 153.835 212.2C153.755 212.015 153.618 211.855 153.572 211.659C153.503 211.367 153.549 211.037 153.528 210.738C153.48 210.089 153.357 209.441 153.126 208.828C153.075 208.694 153.019 208.561 152.958 208.43C152.796 208.083 152.556 207.79 152.373 207.458C152.333 207.385 152.299 207.313 152.289 207.23C152.268 207.06 152.34 206.871 152.384 206.711Z" fill="#FFBF9D"/>
<path d="M148.628 204.92C147.736 204.889 146.764 205.068 146.168 205.71C145.462 206.472 145.299 208.295 145.38 209.315C146.617 209.54 147.277 209.274 148.515 209.5C148.775 209.547 148.993 209.484 149.209 209.632C149.78 210.023 149.687 211.341 149.917 211.98C150.315 213.088 151.784 213.628 152.923 213.221C154.061 212.814 154.794 211.644 154.852 210.473C154.909 209.302 154.376 208.157 153.594 207.26C152.374 205.858 150.523 204.986 148.628 204.92Z" fill="#FFBF9D"/>
<path d="M169.699 215.777C169.573 215.751 170.082 213.564 170.404 210.843C170.559 209.482 170.595 208.244 170.539 207.351C170.492 206.459 170.383 205.91 170.444 205.896C170.489 205.883 170.697 206.418 170.818 207.327C170.948 208.234 170.955 209.503 170.798 210.884C170.644 212.265 170.377 213.494 170.156 214.374C169.931 215.254 169.751 215.788 169.699 215.777Z" fill="#B4907F"/>
<path d="M163.673 220.475C163.617 220.463 163.76 219.668 164.003 218.39C164.244 217.112 164.584 215.347 164.841 213.386C165.098 211.424 165.19 209.636 165.162 208.342C165.143 207.048 165.045 206.249 165.109 206.24C165.153 206.233 165.349 207.023 165.442 208.331C165.542 209.638 165.494 211.454 165.234 213.433C164.975 215.412 164.589 217.178 164.278 218.446C163.963 219.714 163.724 220.486 163.673 220.475Z" fill="#B4907F"/>
<path d="M158.576 221.313C158.516 221.298 158.727 220.421 158.993 218.993C159.26 217.566 159.555 215.582 159.681 213.374C159.804 211.167 159.735 209.163 159.63 207.716C159.526 206.269 159.415 205.375 159.476 205.366C159.503 205.362 159.561 205.581 159.643 205.982C159.728 206.382 159.82 206.966 159.909 207.692C160.086 209.142 160.201 211.166 160.077 213.396C159.95 215.625 159.608 217.624 159.268 219.047C159.099 219.759 158.941 220.33 158.812 220.719C158.684 221.109 158.601 221.32 158.576 221.313Z" fill="#B4907F"/>
<path d="M151.854 206.94C151.872 206.901 152.312 207.025 152.895 207.448C153.476 207.864 154.175 208.617 154.586 209.628C154.995 210.636 155.027 211.659 154.81 212.348C154.589 213.058 154.127 213.304 154.112 213.259C154.067 213.217 154.412 212.928 154.539 212.282C154.668 211.649 154.598 210.703 154.217 209.768C153.836 208.828 153.222 208.104 152.716 207.656C152.208 207.202 151.824 206.995 151.854 206.94Z" fill="#B4907F"/>
</svg>
