<svg width="114" height="88" viewBox="0 0 114 88" fill="none" xmlns="http://www.w3.org/2000/svg">
<path d="M113 48C113 58.8403 106.794 68.7033 96.6626 75.8762C86.5321 83.0482 72.5108 87.5 57 87.5C41.4892 87.5 27.4679 83.0482 17.3374 75.8762C7.20562 68.7033 1 58.8403 1 48C1 37.1597 7.20562 27.2967 17.3374 20.1238C27.4679 12.9518 41.4892 8.5 57 8.5C72.5108 8.5 86.5321 12.9518 96.6626 20.1238C106.794 27.2967 113 37.1597 113 48Z" stroke="url(#paint0_linear_38_234)"/>
<path d="M55.8955 30.5904C57.7968 30.5904 59.3381 29.0874 59.3381 27.2334C59.3381 25.3794 57.7968 23.8765 55.8955 23.8765C53.9943 23.8765 52.453 25.3794 52.453 27.2334C52.453 29.0874 53.9943 30.5904 55.8955 30.5904Z" fill="#DB8C15"/>
<path d="M55.8956 10.4486C51.0578 10.4483 46.4154 12.31 42.9774 15.629C39.5395 18.948 37.5838 23.4561 37.5354 28.1734C37.5354 40.4375 53.7153 54.0892 54.4038 54.6711C54.8195 55.0178 55.3485 55.2083 55.8956 55.2083C56.4426 55.2083 56.9716 55.0178 57.3873 54.6711C58.1906 54.0892 74.2557 40.4375 74.2557 28.1734C74.2073 23.4561 72.2516 18.948 68.8137 15.629C65.3757 12.31 60.7333 10.4483 55.8956 10.4486ZM55.8956 35.0664C54.3069 35.0664 52.7538 34.607 51.4329 33.7463C50.1119 32.8856 49.0824 31.6622 48.4744 30.231C47.8665 28.7997 47.7074 27.2247 48.0173 25.7053C48.3273 24.1859 49.0923 22.7902 50.2157 21.6947C51.339 20.5992 52.7703 19.8532 54.3285 19.551C55.8866 19.2488 57.5017 19.4039 58.9695 19.9967C60.4372 20.5896 61.6918 21.5936 62.5744 22.8817C63.457 24.1698 63.9281 25.6842 63.9281 27.2334C63.9281 29.3109 63.0818 31.3032 61.5754 32.7721C60.069 34.2411 58.0259 35.0664 55.8956 35.0664Z" fill="#DB8C15"/>
<defs>
<linearGradient id="paint0_linear_38_234" x1="57" y1="8" x2="57" y2="88" gradientUnits="userSpaceOnUse">
<stop stop-opacity="0"/>
<stop offset="1" stop-color="#DB8C15" stop-opacity="0.31"/>
</linearGradient>
</defs>
</svg>
