<svg width="129" height="38" viewBox="0 0 129 38" fill="none" xmlns="http://www.w3.org/2000/svg">
<path d="M25.7328 33.04C26.1595 33.7333 26.3195 34.36 26.2128 34.92C26.1061 35.5067 25.8395 35.9867 25.4128 36.36C24.9861 36.76 24.4661 37.0133 23.8528 37.12C23.2661 37.2267 22.6661 37.16 22.0528 36.92C21.4661 36.7067 20.9595 36.28 20.5328 35.64L17.6928 31C17.3461 30.4667 16.8928 30.0667 16.3328 29.8C15.7995 29.56 15.1061 29.44 14.2528 29.44L18.9728 27.64C20.1995 27.64 21.1995 27.8533 21.9728 28.28C22.7728 28.7067 23.4928 29.44 24.1328 30.48L25.7328 33.04ZM14.2928 29.44C11.5195 29.44 9.07948 28.84 6.97281 27.64C4.89281 26.4133 3.26614 24.7067 2.09281 22.52C0.946144 20.3333 0.37281 17.7867 0.37281 14.88C0.37281 12.6667 0.69281 10.68 1.33281 8.92C1.99948 7.13333 2.94614 5.61333 4.17281 4.36C5.39948 3.08 6.86614 2.09333 8.57281 1.4C10.3061 0.706665 12.2128 0.359999 14.2928 0.359999C17.1195 0.359999 19.5728 0.959999 21.6528 2.16C23.7328 3.36 25.3461 5.05333 26.4928 7.24C27.6661 9.4 28.2528 11.9333 28.2528 14.84C28.2528 17.0533 27.9195 19.0533 27.2528 20.84C26.5861 22.6267 25.6395 24.16 24.4128 25.44C23.1861 26.72 21.7195 27.7067 20.0128 28.4C18.3061 29.0933 16.3995 29.44 14.2928 29.44ZM14.2928 24.16C15.8661 24.16 17.1995 23.8 18.2928 23.08C19.4128 22.3333 20.2661 21.2667 20.8528 19.88C21.4661 18.4667 21.7728 16.8 21.7728 14.88C21.7728 11.9467 21.1195 9.68 19.8128 8.08C18.5061 6.45333 16.6661 5.64 14.2928 5.64C12.7461 5.64 11.4128 6 10.2928 6.72C9.17281 7.44 8.31948 8.49333 7.73281 9.88C7.14614 11.2667 6.85281 12.9333 6.85281 14.88C6.85281 17.7867 7.50614 20.0667 8.81281 21.72C10.1195 23.3467 11.9461 24.16 14.2928 24.16ZM38.4127 29.396C36.9247 29.396 35.6887 29.12 34.7047 28.568C33.7207 28.016 32.9887 27.188 32.5087 26.084C32.0527 24.956 31.8247 23.564 31.8247 21.908V13.772C31.8247 12.86 32.0527 12.176 32.5087 11.72C32.9887 11.264 33.6607 11.036 34.5247 11.036C35.3887 11.036 36.0607 11.264 36.5407 11.72C37.0207 12.176 37.2607 12.86 37.2607 13.772V22.052C37.2607 23.108 37.4767 23.9 37.9087 24.428C38.3407 24.932 39.0247 25.184 39.9607 25.184C40.9927 25.184 41.8327 24.824 42.4807 24.104C43.1527 23.36 43.4887 22.388 43.4887 21.188V13.772C43.4887 12.86 43.7167 12.176 44.1727 11.72C44.6527 11.264 45.3247 11.036 46.1887 11.036C47.0767 11.036 47.7487 11.264 48.2047 11.72C48.6847 12.176 48.9247 12.86 48.9247 13.772V26.552C48.9247 28.4 48.0487 29.324 46.2967 29.324C45.4327 29.324 44.7727 29.084 44.3167 28.604C43.8607 28.124 43.6327 27.44 43.6327 26.552V24.14L44.1727 25.544C43.6447 26.768 42.8887 27.716 41.9047 28.388C40.9207 29.06 39.7567 29.396 38.4127 29.396ZM55.5071 29.288C54.6191 29.288 53.9351 29.036 53.4551 28.532C52.9991 28.004 52.7711 27.272 52.7711 26.336V14.024C52.7711 13.064 52.9991 12.332 53.4551 11.828C53.9351 11.3 54.6191 11.036 55.5071 11.036C56.3711 11.036 57.0311 11.3 57.4871 11.828C57.9671 12.332 58.2071 13.064 58.2071 14.024V26.336C58.2071 27.272 57.9791 28.004 57.5231 28.532C57.0671 29.036 56.3951 29.288 55.5071 29.288ZM55.5071 8.084C54.4991 8.084 53.7191 7.856 53.1671 7.4C52.6391 6.92 52.3751 6.248 52.3751 5.384C52.3751 4.496 52.6391 3.824 53.1671 3.368C53.7191 2.888 54.4991 2.648 55.5071 2.648C56.5151 2.648 57.2831 2.888 57.8111 3.368C58.3391 3.824 58.6031 4.496 58.6031 5.384C58.6031 6.248 58.3391 6.92 57.8111 7.4C57.2831 7.856 56.5151 8.084 55.5071 8.084ZM63.9159 29C63.3879 29 62.9439 28.868 62.5839 28.604C62.2239 28.316 61.9839 27.956 61.8639 27.524C61.7439 27.092 61.7439 26.624 61.8639 26.12C62.0079 25.616 62.2839 25.148 62.6919 24.716L71.5119 14.132V15.392H63.6999C63.0519 15.392 62.5479 15.212 62.1879 14.852C61.8279 14.492 61.6479 14 61.6479 13.376C61.6479 12.704 61.8279 12.2 62.1879 11.864C62.5479 11.504 63.0519 11.324 63.6999 11.324H74.1039C74.7519 11.324 75.2679 11.468 75.6519 11.756C76.0359 12.044 76.2879 12.404 76.4079 12.836C76.5519 13.244 76.5639 13.7 76.4439 14.204C76.3479 14.684 76.0959 15.14 75.6879 15.572L66.6519 26.372V24.968H75.0039C76.3719 24.968 77.0559 25.64 77.0559 26.984C77.0559 27.632 76.8759 28.136 76.5159 28.496C76.1559 28.832 75.6519 29 75.0039 29H63.9159ZM82.4008 29.324C81.5848 29.324 80.9608 29.096 80.5288 28.64C80.0968 28.184 79.8808 27.548 79.8808 26.732V5.888C79.8808 5.072 80.1088 4.436 80.5648 3.98C81.0448 3.524 81.6928 3.296 82.5088 3.296C83.2288 3.296 83.7928 3.44 84.2008 3.728C84.6328 3.992 85.0288 4.46 85.3888 5.132L93.7048 20.324H92.4808L100.797 5.132C101.157 4.46 101.541 3.992 101.949 3.728C102.381 3.44 102.945 3.296 103.641 3.296C104.457 3.296 105.081 3.524 105.513 3.98C105.969 4.436 106.197 5.072 106.197 5.888V26.732C106.197 27.548 105.981 28.184 105.549 28.64C105.117 29.096 104.493 29.324 103.677 29.324C102.861 29.324 102.225 29.096 101.769 28.64C101.337 28.184 101.121 27.548 101.121 26.732V12.152H101.913L95.2168 24.14C94.9288 24.596 94.6168 24.944 94.2808 25.184C93.9688 25.4 93.5488 25.508 93.0208 25.508C92.4928 25.508 92.0608 25.388 91.7248 25.148C91.3888 24.908 91.0888 24.572 90.8248 24.14L84.0568 12.116H84.9208V26.732C84.9208 27.548 84.7048 28.184 84.2728 28.64C83.8648 29.096 83.2408 29.324 82.4008 29.324ZM119.012 29.396C117.116 29.396 115.46 29.024 114.044 28.28C112.652 27.536 111.572 26.468 110.804 25.076C110.036 23.684 109.652 22.04 109.652 20.144C109.652 18.728 109.868 17.456 110.3 16.328C110.732 15.2 111.356 14.24 112.172 13.448C113.012 12.632 114.008 12.02 115.16 11.612C116.312 11.18 117.596 10.964 119.012 10.964C120.908 10.964 122.552 11.336 123.944 12.08C125.36 12.824 126.452 13.88 127.22 15.248C128.012 16.616 128.408 18.248 128.408 20.144C128.408 21.584 128.18 22.868 127.724 23.996C127.292 25.124 126.668 26.096 125.852 26.912C125.036 27.728 124.04 28.352 122.864 28.784C121.712 29.192 120.428 29.396 119.012 29.396ZM119.012 25.328C119.804 25.328 120.488 25.136 121.064 24.752C121.64 24.368 122.096 23.804 122.432 23.06C122.768 22.292 122.936 21.32 122.936 20.144C122.936 18.392 122.576 17.108 121.856 16.292C121.136 15.452 120.188 15.032 119.012 15.032C118.244 15.032 117.56 15.212 116.96 15.572C116.384 15.932 115.928 16.496 115.592 17.264C115.28 18.008 115.124 18.968 115.124 20.144C115.124 21.896 115.484 23.204 116.204 24.068C116.924 24.908 117.86 25.328 119.012 25.328ZM124.34 7.184C124.58 7.64 124.628 8.048 124.484 8.408C124.364 8.768 124.136 9.044 123.8 9.236C123.464 9.404 123.104 9.464 122.72 9.416C122.336 9.368 122.012 9.14 121.748 8.732L119.012 4.592L116.276 8.732C116.012 9.14 115.688 9.368 115.304 9.416C114.92 9.464 114.56 9.404 114.224 9.236C113.888 9.044 113.648 8.768 113.504 8.408C113.384 8.048 113.444 7.64 113.684 7.184L116.024 2.9C116.36 2.252 116.78 1.772 117.284 1.46C117.788 1.124 118.364 0.955998 119.012 0.955998C119.684 0.955998 120.272 1.124 120.776 1.46C121.28 1.772 121.7 2.252 122.036 2.9L124.34 7.184Z" fill="#044540"/>
</svg>
