<svg width="183" height="90" viewBox="0 0 183 90" fill="none" xmlns="http://www.w3.org/2000/svg">
<path d="M43.8216 72.464C44.5043 73.5733 44.7603 74.576 44.5896 75.472C44.419 76.4107 43.9923 77.1787 43.3096 77.776C42.627 78.416 41.795 78.8213 40.8136 78.992C39.875 79.1627 38.915 79.056 37.9336 78.672C36.995 78.3307 36.1843 77.648 35.5016 76.624L30.9576 69.2C30.403 68.3467 29.6776 67.7067 28.7816 67.28C27.9283 66.896 26.819 66.704 25.4536 66.704L33.0056 63.824C34.9683 63.824 36.5683 64.1653 37.8056 64.848C39.0856 65.5307 40.2376 66.704 41.2616 68.368L43.8216 72.464ZM25.5176 66.704C21.0803 66.704 17.1763 65.744 13.8056 63.824C10.4776 61.8613 7.87496 59.1307 5.99762 55.632C4.16296 52.1333 3.24562 48.0587 3.24562 43.408C3.24562 39.8667 3.75762 36.688 4.78162 33.872C5.84829 31.0133 7.36296 28.5813 9.32562 26.576C11.2883 24.528 13.635 22.9493 16.3656 21.84C19.139 20.7307 22.1896 20.176 25.5176 20.176C30.0403 20.176 33.9656 21.136 37.2936 23.056C40.6216 24.976 43.203 27.6853 45.0376 31.184C46.915 34.64 47.8536 38.6933 47.8536 43.344C47.8536 46.8853 47.3203 50.0853 46.2536 52.944C45.187 55.8027 43.6723 58.256 41.7096 60.304C39.747 62.352 37.4003 63.9307 34.6696 65.04C31.939 66.1493 28.8883 66.704 25.5176 66.704ZM25.5176 58.256C28.035 58.256 30.1683 57.68 31.9176 56.528C33.7096 55.3333 35.075 53.6267 36.0136 51.408C36.995 49.1467 37.4856 46.48 37.4856 43.408C37.4856 38.7147 36.4403 35.088 34.3496 32.528C32.259 29.9253 29.315 28.624 25.5176 28.624C23.043 28.624 20.9096 29.2 19.1176 30.352C17.3256 31.504 15.9603 33.1893 15.0216 35.408C14.083 37.6267 13.6136 40.2933 13.6136 43.408C13.6136 48.0587 14.659 51.7067 16.7496 54.352C18.8403 56.9547 21.763 58.256 25.5176 58.256ZM61.8151 66.528C59.8311 66.528 58.1831 66.16 56.8711 65.424C55.5591 64.688 54.5831 63.584 53.9431 62.112C53.3351 60.608 53.0311 58.752 53.0311 56.544V45.696C53.0311 44.48 53.3351 43.568 53.9431 42.96C54.5831 42.352 55.4791 42.048 56.6311 42.048C57.7831 42.048 58.6791 42.352 59.3191 42.96C59.9591 43.568 60.2791 44.48 60.2791 45.696V56.736C60.2791 58.144 60.5671 59.2 61.1431 59.904C61.7191 60.576 62.6311 60.912 63.8791 60.912C65.2551 60.912 66.3751 60.432 67.2391 59.472C68.1351 58.48 68.5831 57.184 68.5831 55.584V45.696C68.5831 44.48 68.8871 43.568 69.4951 42.96C70.1351 42.352 71.0311 42.048 72.1831 42.048C73.3671 42.048 74.2631 42.352 74.8711 42.96C75.5111 43.568 75.8311 44.48 75.8311 45.696V62.736C75.8311 65.2 74.6631 66.432 72.3271 66.432C71.1751 66.432 70.2951 66.112 69.6871 65.472C69.0791 64.832 68.7751 63.92 68.7751 62.736V59.52L69.4951 61.392C68.7911 63.024 67.7831 64.288 66.4711 65.184C65.1591 66.08 63.6071 66.528 61.8151 66.528ZM84.6076 66.384C83.4236 66.384 82.5116 66.048 81.8716 65.376C81.2636 64.672 80.9596 63.696 80.9596 62.448V46.032C80.9596 44.752 81.2636 43.776 81.8716 43.104C82.5116 42.4 83.4236 42.048 84.6076 42.048C85.7596 42.048 86.6396 42.4 87.2476 43.104C87.8876 43.776 88.2076 44.752 88.2076 46.032V62.448C88.2076 63.696 87.9036 64.672 87.2956 65.376C86.6876 66.048 85.7916 66.384 84.6076 66.384ZM84.6076 38.112C83.2636 38.112 82.2236 37.808 81.4876 37.2C80.7836 36.56 80.4316 35.664 80.4316 34.512C80.4316 33.328 80.7836 32.432 81.4876 31.824C82.2236 31.184 83.2636 30.864 84.6076 30.864C85.9516 30.864 86.9756 31.184 87.6796 31.824C88.3836 32.432 88.7356 33.328 88.7356 34.512C88.7356 35.664 88.3836 36.56 87.6796 37.2C86.9756 37.808 85.9516 38.112 84.6076 38.112ZM95.3394 66C94.6354 66 94.0434 65.824 93.5634 65.472C93.0834 65.088 92.7634 64.608 92.6034 64.032C92.4434 63.456 92.4434 62.832 92.6034 62.16C92.7954 61.488 93.1634 60.864 93.7074 60.288L105.467 46.176V47.856H95.0514C94.1874 47.856 93.5154 47.616 93.0354 47.136C92.5554 46.656 92.3154 46 92.3154 45.168C92.3154 44.272 92.5554 43.6 93.0354 43.152C93.5154 42.672 94.1874 42.432 95.0514 42.432H108.923C109.787 42.432 110.475 42.624 110.987 43.008C111.499 43.392 111.835 43.872 111.995 44.448C112.187 44.992 112.203 45.6 112.043 46.272C111.915 46.912 111.579 47.52 111.035 48.096L98.9874 62.496V60.624H110.123C111.947 60.624 112.859 61.52 112.859 63.312C112.859 64.176 112.619 64.848 112.139 65.328C111.659 65.776 110.987 66 110.123 66H95.3394ZM119.986 66.432C118.898 66.432 118.066 66.128 117.49 65.52C116.914 64.912 116.626 64.064 116.626 62.976V35.184C116.626 34.096 116.93 33.248 117.538 32.64C118.178 32.032 119.042 31.728 120.13 31.728C121.09 31.728 121.842 31.92 122.386 32.304C122.962 32.656 123.49 33.28 123.97 34.176L135.058 54.432H133.426L144.514 34.176C144.994 33.28 145.506 32.656 146.05 32.304C146.626 31.92 147.378 31.728 148.306 31.728C149.394 31.728 150.226 32.032 150.802 32.64C151.41 33.248 151.714 34.096 151.714 35.184V62.976C151.714 64.064 151.426 64.912 150.85 65.52C150.274 66.128 149.442 66.432 148.354 66.432C147.266 66.432 146.418 66.128 145.81 65.52C145.234 64.912 144.946 64.064 144.946 62.976V43.536H146.002L137.074 59.52C136.69 60.128 136.274 60.592 135.826 60.912C135.41 61.2 134.85 61.344 134.146 61.344C133.442 61.344 132.866 61.184 132.418 60.864C131.97 60.544 131.57 60.096 131.218 59.52L122.194 43.488H123.346V62.976C123.346 64.064 123.058 64.912 122.482 65.52C121.938 66.128 121.106 66.432 119.986 66.432ZM168.801 66.528C166.273 66.528 164.065 66.032 162.177 65.04C160.321 64.048 158.881 62.624 157.857 60.768C156.833 58.912 156.321 56.72 156.321 54.192C156.321 52.304 156.609 50.608 157.185 49.104C157.761 47.6 158.593 46.32 159.681 45.264C160.801 44.176 162.129 43.36 163.665 42.816C165.201 42.24 166.913 41.952 168.801 41.952C171.329 41.952 173.521 42.448 175.377 43.44C177.265 44.432 178.721 45.84 179.745 47.664C180.801 49.488 181.329 51.664 181.329 54.192C181.329 56.112 181.025 57.824 180.417 59.328C179.841 60.832 179.009 62.128 177.921 63.216C176.833 64.304 175.505 65.136 173.937 65.712C172.401 66.256 170.689 66.528 168.801 66.528ZM168.801 61.104C169.857 61.104 170.769 60.848 171.537 60.336C172.305 59.824 172.913 59.072 173.361 58.08C173.809 57.056 174.033 55.76 174.033 54.192C174.033 51.856 173.553 50.144 172.593 49.056C171.633 47.936 170.369 47.376 168.801 47.376C167.777 47.376 166.865 47.616 166.065 48.096C165.297 48.576 164.689 49.328 164.241 50.352C163.825 51.344 163.617 52.624 163.617 54.192C163.617 56.528 164.097 58.272 165.057 59.424C166.017 60.544 167.265 61.104 168.801 61.104ZM175.905 36.912C176.225 37.52 176.289 38.064 176.097 38.544C175.937 39.024 175.633 39.392 175.185 39.648C174.737 39.872 174.257 39.952 173.745 39.888C173.233 39.824 172.801 39.52 172.449 38.976L168.801 33.456L165.153 38.976C164.801 39.52 164.369 39.824 163.857 39.888C163.345 39.952 162.865 39.872 162.417 39.648C161.969 39.392 161.649 39.024 161.457 38.544C161.297 38.064 161.377 37.52 161.697 36.912L164.817 31.2C165.265 30.336 165.825 29.696 166.497 29.28C167.169 28.832 167.937 28.608 168.801 28.608C169.697 28.608 170.481 28.832 171.153 29.28C171.825 29.696 172.385 30.336 172.833 31.2L175.905 36.912Z" fill="#044540"/>
</svg>
