<svg width="25" height="25" viewBox="0 0 25 25" fill="none" xmlns="http://www.w3.org/2000/svg">
<path d="M12.6614 24.4854C6.06854 24.4854 0.723938 19.1408 0.723938 12.5479C0.723938 5.95495 6.06854 0.610352 12.6614 0.610352C19.2543 0.610352 24.5989 5.95495 24.5989 12.5479C24.5989 19.1408 19.2543 24.4854 12.6614 24.4854Z" stroke="#DB8C15" stroke-width="0.125"/>
<path d="M12.6614 21.5479C17.632 21.5479 21.6614 17.5184 21.6614 12.5479C21.6614 7.57729 17.632 3.54785 12.6614 3.54785C7.69088 3.54785 3.66144 7.57729 3.66144 12.5479C3.66144 17.5184 7.69088 21.5479 12.6614 21.5479Z" stroke="#DB8C15" stroke-width="1.5" stroke-linecap="round" stroke-linejoin="round"/>
<path d="M11.9114 11.7979V11.7979C12.3257 11.7979 12.6614 12.1336 12.6614 12.5479V16.2979C12.6614 16.7121 12.9972 17.0479 13.4114 17.0479V17.0479" stroke="#DB8C15" stroke-width="1.5" stroke-linecap="round" stroke-linejoin="round"/>
<path d="M13.3489 8.42285C13.3489 8.9061 12.9572 9.29785 12.4739 9.29785C11.9907 9.29785 11.5989 8.9061 11.5989 8.42285C11.5989 7.9396 11.9907 7.54785 12.4739 7.54785C12.9572 7.54785 13.3489 7.9396 13.3489 8.42285Z" fill="#DB8C15" stroke="#DB8C15" stroke-width="0.125"/>
</svg>
