<svg width="1366" height="1074" viewBox="0 0 1366 1074" fill="none" xmlns="http://www.w3.org/2000/svg">
<g clip-path="url(#clip0_313_196)">
<path d="M1036.96 419.73C1036.96 452.35 1032.55 483.93 1024.29 513.92C1019.24 532.3 1012.74 550.08 1004.92 567.13C988.98 601.92 967.57 633.68 941.79 661.31L896.48 702.21L682.76 895.09C682.74 895.11 682.72 895.11 682.7 895.09L468.95 702.18L423.73 661.37C413.95 650.91 404.8 639.85 396.35 628.26L396.34 628.24C382.47 609.22 370.44 588.76 360.53 567.13C359.9 565.75 359.28 564.37 358.67 562.99C351.68 547.21 345.81 530.82 341.17 513.92C332.91 483.93 328.5 452.35 328.5 419.73C328.5 340.9 354.25 268.09 397.8 209.24C462.32 122.04 565.92 65.5 682.73 65.5C799.51 65.5 903.09 122.01 967.61 209.17C967.63 209.2 967.61 209.24 967.57 209.24H685.85C575.86 209.24 484.43 299.23 484.95 409.22C485.13 447.67 496.22 483.55 515.28 513.92C528.19 534.49 544.75 552.54 564.07 567.13C597.42 592.35 638.96 607.31 683.99 607.31C729.02 607.31 770.56 592.35 803.91 567.13C823.22 552.54 839.79 534.49 852.69 513.92C871.91 483.3 883.02 447.08 883.02 408.27V365.85C883.02 365.82 883.04 365.8 883.07 365.8L1033.24 368.55C1033.26 368.55 1033.28 368.57 1033.29 368.59C1035.71 385.29 1036.96 402.36 1036.96 419.73Z" fill="url(#paint0_linear_313_196)"/>
<path d="M682.73 895.79L682.4 895.49L423.4 661.74C413.59 651.26 404.37 640.1 395.95 628.56C381.98 609.39 369.91 588.8 360.08 567.34C359.45 565.96 358.83 564.58 358.22 563.19C351.18 547.3 345.28 530.77 340.69 514.05C332.27 483.48 328 451.75 328 419.73C328 343.18 352 270.29 397.4 208.94C429.72 165.26 472.26 129.05 520.43 104.22C570.92 78.2 625.53 65 682.73 65C739.94 65 794.54 78.2 845.04 104.23C893.21 129.06 935.75 165.27 968.07 208.95L968.66 209.75H685.74C573.35 209.75 482.01 302.26 485.55 414.59C486.66 449.78 497.03 483.91 515.7 513.66C528.62 534.25 545 552.11 564.37 566.74C599.04 592.96 640.41 606.82 683.99 606.82C727.57 606.82 768.94 592.96 803.61 566.74C823 552.09 839.37 534.24 852.27 513.66C872.06 482.13 882.52 445.69 882.52 408.28V365.35C882.52 365.32 882.54 365.3 882.57 365.3L1033.72 368.07L1033.78 368.49C1036.23 385.3 1037.47 402.55 1037.47 419.74C1037.47 451.76 1033.2 483.49 1024.78 514.06C1019.78 532.25 1013.25 550.18 1005.38 567.35C989.52 601.97 968.25 633.71 942.16 661.66L896.82 702.59L682.73 895.79ZM682.73 66C625.69 66 571.23 79.16 520.89 105.11C472.85 129.87 430.43 165.98 398.21 209.53C352.93 270.71 329 343.4 329 419.73C329 451.66 333.26 483.31 341.65 513.79C346.23 530.46 352.11 546.94 359.12 562.79C359.73 564.17 360.35 565.55 360.98 566.92C370.78 588.32 382.81 608.85 396.74 627.94C405.14 639.47 414.34 650.6 424.09 661.02L682.69 894.41C682.71 894.43 682.73 894.43 682.75 894.41L896.13 701.83L941.44 660.93C967.42 633.08 988.63 601.44 1004.45 566.91C1012.3 549.8 1018.81 531.92 1023.79 513.78C1032.19 483.3 1036.44 451.65 1036.44 419.72C1036.44 402.73 1035.23 385.69 1032.83 369.07C1032.83 369.05 1032.81 369.03 1032.78 369.03L883.54 366.3C883.51 366.3 883.49 366.32 883.49 366.35V408.26C883.49 445.86 872.98 482.48 853.08 514.18C840.11 534.86 823.66 552.8 804.18 567.52C769.33 593.87 727.76 607.8 683.96 607.8C640.16 607.8 598.58 593.87 563.74 567.52C544.27 552.82 527.82 534.87 514.83 514.18C496.06 484.27 485.64 449.97 484.52 414.6C480.97 301.7 572.76 208.74 685.72 208.74H966.55C966.59 208.74 966.61 208.7 966.59 208.67C934.47 165.5 892.3 129.71 844.58 105.11C794.23 79.16 739.77 66 682.73 66Z" fill="url(#paint1_linear_313_196)"/>
<path d="M840.52 340.31V465.45C840.52 473.71 833.83 480.4 825.57 480.4H668.31C660.05 480.4 653.36 473.71 653.36 465.45V340.31C653.36 332.05 660.05 325.36 668.31 325.36H825.57C833.82 325.37 840.52 332.06 840.52 340.31Z" fill="url(#paint2_linear_313_196)"/>
<path d="M682.73 1001.76C808.59 1001.76 910.62 963.937 910.62 917.28C910.62 870.623 808.59 832.8 682.73 832.8C556.87 832.8 454.84 870.623 454.84 917.28C454.84 963.937 556.87 1001.76 682.73 1001.76Z" stroke="url(#paint3_linear_313_196)" stroke-width="16" stroke-miterlimit="10"/>
<path d="M876 926V909L947 898.5V936L876 926Z" fill="white"/>
<path d="M682.73 940.13C691.6 940.13 698.79 935.98 698.79 930.86C698.79 925.74 691.6 921.59 682.73 921.59C673.86 921.59 666.67 925.74 666.67 930.86C666.67 935.98 673.86 940.13 682.73 940.13Z" fill="url(#paint4_linear_313_196)"/>
</g>
<defs>
<linearGradient id="paint0_linear_313_196" x1="328.501" y1="480.302" x2="1036.96" y2="480.302" gradientUnits="userSpaceOnUse">
<stop stop-color="#0071BC"/>
<stop offset="1" stop-color="#29ABE2"/>
</linearGradient>
<linearGradient id="paint1_linear_313_196" x1="328" y1="480.397" x2="1037.46" y2="480.397" gradientUnits="userSpaceOnUse">
<stop stop-color="#0071BC"/>
<stop offset="1" stop-color="#29ABE2"/>
</linearGradient>
<linearGradient id="paint2_linear_313_196" x1="653.367" y1="402.882" x2="840.517" y2="402.882" gradientUnits="userSpaceOnUse">
<stop stop-color="#0071BC"/>
<stop offset="1" stop-color="#29ABE2"/>
</linearGradient>
<linearGradient id="paint3_linear_313_196" x1="446.841" y1="917.278" x2="918.62" y2="917.278" gradientUnits="userSpaceOnUse">
<stop stop-color="#0476BF"/>
<stop offset="1" stop-color="#26A8E0"/>
</linearGradient>
<linearGradient id="paint4_linear_313_196" x1="666.674" y1="930.856" x2="698.787" y2="930.856" gradientUnits="userSpaceOnUse">
<stop stop-color="#0071BC"/>
<stop offset="1" stop-color="#29ABE2"/>
</linearGradient>
<clipPath id="clip0_313_196">
<rect width="709.46" height="944.76" fill="white" transform="translate(328 65)"/>
</clipPath>
</defs>
</svg>
